<?xml version="1.0" encoding="utf-8"?>
<!-- Generator: Adobe Illustrator 18.1.1, SVG Export Plug-In . SVG Version: 6.00 Build 0)  -->
<svg version="1.1" id="Layer_1" xmlns="http://www.w3.org/2000/svg" xmlns:xlink="http://www.w3.org/1999/xlink" x="0px" y="0px"
	 viewBox="0 390.6 612 478.3" enable-background="new 0 390.6 612 478.3" xml:space="preserve">
<path fill="#80D0D8" d="M0,390.6h612v478.3H0V390.6z"/>
<path fill="#DD4357" d="M71.9,868.9H44L58,841L71.9,868.9z"/>
<path fill="#CDA18C" d="M99.9,868.9h-28l14-27.9L99.9,868.9z"/>
<path fill="#B6CB83" d="M127.8,868.9H99.9l14-27.9L127.8,868.9z"/>
<path fill="#82C5BC" d="M155.9,868.9h-28.1l14.1-27.9L155.9,868.9z"/>
<path fill="#25ACB7" d="M183.8,868.9h-27.9l14-27.9L183.8,868.9z"/>
<path fill="#DD4357" d="M141.9,841h27.9l-14,27.9L141.9,841z"/>
<path fill="#F38945" d="M113.8,841h28.1l-14.1,27.9L113.8,841z"/>
<path fill="#CB6594" d="M85.9,841h27.9l-14,27.9L85.9,841z"/>
<path fill="#B6CB83" d="M58,841h27.9l-14,27.9L58,841z"/>
<path fill="#CDA18C" d="M30,841h28l-14,27.9L30,841z"/>
<path fill="#25ACB7" d="M2.1,841H30l-14,27.9L2.1,841z"/>
<path fill="#DD4357" d="M30.9,841h-28l14-27.9L30.9,841z"/>
<path fill="#CDA18C" d="M58.9,841h-28l14-27.9L58.9,841z"/>
<path fill="#B6CB83" d="M86.9,841h-28l14-27.9L86.9,841z"/>
<path fill="#82C5BC" d="M114.8,841H86.9l14-27.9L114.8,841z"/>
<path fill="#25ACB7" d="M142.8,841h-27.9l14-27.9L142.8,841z"/>
<path fill="#DD4357" d="M100.9,812.9h27.9l-14,27.9L100.9,812.9z"/>
<path fill="#F38945" d="M72.9,812.9h27.9l-14,27.9L72.9,812.9z"/>
<path fill="#CB6594" d="M44.9,812.9H73L59,841L44.9,812.9z"/>
<path fill="#B6CB83" d="M16.9,812.9h27.9l-14,27.9L16.9,812.9z"/>
<path fill="#B6CB83" d="M45,812.9H17L31,785L45,812.9z"/>
<path fill="#82C5BC" d="M73,812.9H45L59,785L73,812.9z"/>
<path fill="#25ACB7" d="M101,812.9H73L87,785L101,812.9z"/>
<path fill="#DD4357" d="M59,785h28l-14,27.9L59,785z"/>
<path fill="#F38945" d="M31,785h28l-14,27.9L31,785z"/>
<path fill="#CB6594" d="M3.1,785H31l-14,27.9L3.1,785z"/>
<path fill="#82C5BC" d="M30.8,785h-28l14-27.9L30.8,785z"/>
<path fill="#25ACB7" d="M58.8,785h-28l14.1-28L58.8,785z"/>
<path fill="#DD4357" d="M16.8,757.1h28.1L30.8,785L16.8,757.1z"/>
<path fill="#CB6594" d="M562.7,868.9h32.1l-16-27.9L562.7,868.9z"/>
<path fill="#DD4357" d="M530.6,868.9h32.1L546.5,841L530.6,868.9z"/>
<path fill="#CDA18C" d="M498.5,868.9h32.1l-16-27.9L498.5,868.9z"/>
<path fill="#B6CB83" d="M466.4,868.9h32.1l-16-27.9L466.4,868.9z"/>
<path fill="#82C5BC" d="M434.2,868.9h32.1l-16-27.9L434.2,868.9z"/>
<path fill="#25ACB7" d="M402.2,868.9h32.1l-16-27.9L402.2,868.9z"/>
<path fill="#DD4357" d="M450.3,841h-32.1l16,27.9L450.3,841z"/>
<path fill="#F38945" d="M482.4,841h-32.1l16,27.9L482.4,841z"/>
<path fill="#CB6594" d="M514.5,841h-32.1l16.2,27.9L514.5,841z"/>
<path fill="#B6CB83" d="M546.6,841h-32.1l16,27.9L546.6,841z"/>
<path fill="#CDA18C" d="M578.7,841h-32.1l16.2,27.9L578.7,841z"/>
<path fill="#25ACB7" d="M610.8,841h-32.1l16,27.9L610.8,841z"/>
<path fill="#DD4357" d="M577.7,841h32.1l-16-28.1L577.7,841z"/>
<path fill="#CDA18C" d="M545.5,841h32.1l-16-27.9L545.5,841z"/>
<path fill="#B6CB83" d="M513.5,841h32.1l-16-27.9L513.5,841z"/>
<path fill="#82C5BC" d="M481.3,841h32.1l-16.2-28L481.3,841z"/>
<path fill="#25ACB7" d="M449.4,841h32l-16-27.9L449.4,841z"/>
<path fill="#DD4357" d="M497.4,812.9h-32.1l16,27.9L497.4,812.9z"/>
<path fill="#F38945" d="M529.5,812.9h-32.1l16.2,27.9L529.5,812.9z"/>
<path fill="#CB6594" d="M561.7,812.9h-32.1l16,27.9L561.7,812.9z"/>
<path fill="#B6CB83" d="M593.7,812.9h-32.1l16,27.9L593.7,812.9z"/>
<path fill="#B6CB83" d="M562.4,812.9h32.1l-16-27.9L562.4,812.9z"/>
<path fill="#82C5BC" d="M530.4,812.9h32.1l-16-27.9L530.4,812.9z"/>
<path fill="#25ACB7" d="M498.3,812.9h32.1l-16-27.9L498.3,812.9z"/>
<path fill="#DD4357" d="M546.4,785h-32.1l16,27.9L546.4,785z"/>
<path fill="#F38945" d="M578.5,785h-32.1l16,27.9L578.5,785z"/>
<path fill="#CB6594" d="M610.6,785h-32.1l16,27.9L610.6,785z"/>
<path fill="#82C5BC" d="M578.7,785h32.1l-16-27.9L578.7,785z"/>
<path fill="#25ACB7" d="M546.6,785h32.1l-16-27.9L546.6,785z"/>
<path fill="#DD4357" d="M594.8,757.1h-32.1l16,27.9L594.8,757.1z"/>
</svg>
