<svg xmlns="http://www.w3.org/2000/svg" viewBox="0 0 717.1 625.2" enable-background="new 0 0 717.1 625.2"><style type="text/css">.st0{fill:#80D0D8;} .st1{fill:#F38945;} .st2{fill:#CB6594;} .st3{fill:#DD4357;} .st4{fill:#CDA18C;} .st5{fill:#B6CB83;} .st6{fill:#82C5BC;} .st7{fill:#25ACB7;} .st8{fill:none;} .st9{fill:#FFFFFF;stroke:#FFFFFF;stroke-miterlimit:10;}</style><path class="st0" d="M26.9 0h657v598.8h-657z"/><path class="st1" d="M44.2 598.8h-30.1l15.1-30z"/><path class="st2" d="M74.2 598.8h-30l15-30zm-42.5-30h-30l15-30z"/><path class="st3" d="M104.2 598.8h-30l15-30z"/><path class="st4" d="M134.2 598.8h-30l15-30z"/><path class="st5" d="M164.2 598.8h-30l15-30z"/><path class="st6" d="M194.3 598.8h-30.1l15.1-30z"/><path class="st7" d="M224.3 598.8h-30l15-30z"/><path class="st3" d="M179.3 568.8h30l-15 30z"/><path class="st1" d="M149.2 568.8h30.1l-15.1 30z"/><path class="st2" d="M119.2 568.8h30l-15 30z"/><path class="st5" d="M89.2 568.8h30l-15 30z"/><path class="st4" d="M59.2 568.8h30l-15 30z"/><path class="st7" d="M29.2 568.8h30l-15 30z"/><path class="st3" d="M60.1 568.8h-30l15-30z"/><path class="st4" d="M90.2 568.8h-30.1l15-30z"/><path class="st5" d="M120.2 568.8h-30l15-30z"/><path class="st6" d="M150.2 568.8h-30l15-30z"/><path class="st7" d="M180.2 568.8h-30l15-30z"/><path class="st3" d="M135.2 538.8h30l-15 30z"/><path class="st1" d="M105.2 538.8h30l-15 30z"/><path class="st2" d="M75.1 538.8h30.1l-15 30z"/><path class="st5" d="M45.1 538.8h30l-15 30z"/><path class="st4" d="M15.1 538.8h30l-15 30zm30.1 0h-30l15-30z"/><path class="st5" d="M75.2 538.8h-30l15-30z"/><path class="st6" d="M105.3 538.8h-30.1l15.1-30z"/><path class="st7" d="M135.3 538.8h-30l15-30z"/><path class="st3" d="M90.3 508.8h30l-15 30z"/><path class="st1" d="M60.2 508.8h30.1l-15.1 30z"/><path class="st2" d="M30.2 508.8h30l-15 30z"/><path class="st5" d="M.2 508.8h30l-15 30zm29.8 0h-30l15-30.1z"/><path class="st6" d="M60 508.8h-30l15-30.1z"/><path class="st7" d="M90.1 508.8h-30.1l15.1-30.1z"/><path class="st3" d="M45 478.7h30.1l-15.1 30.1z"/><path class="st1" d="M15 478.7h30l-15 30.1z"/><path class="st7" d="M43.2 478.7h-30l15-30z"/><path class="st1" d="M665.4 598.8h34.5l-17.3-30z"/><path class="st2" d="M631 598.8h34.4l-17.2-30z"/><path class="st3" d="M596.5 598.8h34.5l-17.3-30z"/><path class="st4" d="M562.1 598.8h34.4l-17.2-30z"/><path class="st5" d="M527.6 598.8h34.5l-17.3-30z"/><path class="st6" d="M493.1 598.8h34.5l-17.2-30z"/><path class="st7" d="M458.7 598.8h34.4l-17.2-30z"/><path class="st3" d="M510.4 568.8h-34.5l17.2 30z"/><path class="st1" d="M544.8 568.8h-34.4l17.2 30z"/><path class="st2" d="M579.3 568.8h-34.5l17.3 30z"/><path class="st5" d="M613.7 568.8h-34.4l17.2 30z"/><path class="st4" d="M648.2 568.8h-34.5l17.3 30z"/><path class="st7" d="M682.6 568.8h-34.4l17.2 30z"/><path class="st6" d="M717.1 568.8h-34.5l17.3 30zm-687.3 0h-29.2l13.5 30z"/><path class="st2" d="M681.5 568.8h34.5l-17.2-30z"/><path class="st3" d="M647.1 568.8h34.4l-17.2-30z"/><path class="st4" d="M612.6 568.8h34.5l-17.2-30z"/><path class="st5" d="M578.2 568.8h34.4l-17.2-30z"/><path class="st6" d="M543.7 568.8h34.5l-17.3-30z"/><path class="st7" d="M509.3 568.8h34.4l-17.2-30z"/><path class="st3" d="M560.9 538.8h-34.4l17.2 30z"/><path class="st1" d="M595.4 538.8h-34.5l17.3 30z"/><path class="st2" d="M629.9 538.8h-34.5l17.2 30z"/><path class="st5" d="M664.3 538.8h-34.4l17.2 30z"/><path class="st4" d="M698.8 538.8h-34.5l17.2 30zm-33.6 0h34.4l-17.2-30z"/><path class="st5" d="M630.7 538.8h34.5l-17.2-30z"/><path class="st6" d="M596.3 538.8h34.4l-17.2-30z"/><path class="st7" d="M561.8 538.8h34.5l-17.2-30z"/><path class="st3" d="M613.5 508.8h-34.4l17.2 30z"/><path class="st1" d="M648 508.8h-34.5l17.2 30z"/><path class="st2" d="M682.4 508.8h-34.4l17.2 30z"/><path class="st5" d="M716.9 508.8h-34.5l17.2 30zm-34.3 0h34.5l-17.2-30.1z"/><path class="st6" d="M648.2 508.8h34.4l-17.2-30.1z"/><path class="st7" d="M613.7 508.8h34.5l-17.2-30.1z"/><path class="st3" d="M665.4 478.7h-34.4l17.2 30.1z"/><path class="st1" d="M699.9 478.7h-34.5l17.2 30.1z"/><path class="st7" d="M665.9 478.7h34.4l-17.2-30z"/><circle class="st7" cx="355.4" cy="594.2" r="31"/><path class="st8" d="M337.2 560h41.4v60.3h-41.4z"/><path class="st9" d="M348.7 603v-1.5c1.6.8 2.6 1.4 3.3 1.8.6.4 1.6 1.1 2.8 2.1v-28.9h2v28.9c1.4-1.3 3.4-2.6 6.1-3.9v1.5c-1.9 1.7-3.3 3.1-4.3 4.3-1 1.2-1.8 2.5-2.4 3.8h-.9c-1.1-2.4-3.2-5.1-6.6-8.1z"/></svg>