<svg xmlns="http://www.w3.org/2000/svg" viewBox="0 0 717.1 441.7" enable-background="new 0 0 717.1 441.7"><style type="text/css">.st0{fill:#80D0D8;} .st1{fill:#F38945;} .st2{fill:#CB6594;} .st3{fill:#DD4357;} .st4{fill:#CDA18C;} .st5{fill:#B6CB83;} .st6{fill:#82C5BC;} .st7{fill:#25ACB7;}</style><path class="st0" d="M26.9 0h657v441.7h-657z"/><path class="st1" d="M44.2 441.7h-30.1l15.1-30z"/><path class="st2" d="M74.2 441.7h-30l15-30zm-42.5-30h-30l15-30z"/><path class="st3" d="M104.2 441.7h-30l15-30z"/><path class="st4" d="M134.2 441.7h-30l15-30z"/><path class="st5" d="M164.2 441.7h-30l15-30z"/><path class="st6" d="M194.3 441.7h-30.1l15.1-30z"/><path class="st7" d="M224.3 441.7h-30l15-30z"/><path class="st3" d="M179.3 411.7h30l-15 30z"/><path class="st1" d="M149.2 411.7h30.1l-15.1 30z"/><path class="st2" d="M119.2 411.7h30l-15 30z"/><path class="st5" d="M89.2 411.7h30l-15 30z"/><path class="st4" d="M59.2 411.7h30l-15 30z"/><path class="st7" d="M29.2 411.7h30l-15 30z"/><path class="st3" d="M60.1 411.7h-30l15-30z"/><path class="st4" d="M90.2 411.7h-30.1l15-30z"/><path class="st5" d="M120.2 411.7h-30l15-30z"/><path class="st6" d="M150.2 411.7h-30l15-30z"/><path class="st7" d="M180.2 411.7h-30l15-30z"/><path class="st3" d="M135.2 381.7h30l-15 30z"/><path class="st1" d="M105.2 381.7h30l-15 30z"/><path class="st2" d="M75.1 381.7h30.1l-15 30z"/><path class="st5" d="M45.1 381.7h30l-15 30z"/><path class="st4" d="M15.1 381.7h30l-15 30zm30.1 0h-30l15-30z"/><path class="st5" d="M75.2 381.7h-30l15-30z"/><path class="st6" d="M105.3 381.7h-30.1l15.1-30z"/><path class="st7" d="M135.3 381.7h-30l15-30z"/><path class="st3" d="M90.3 351.7h30l-15 30z"/><path class="st1" d="M60.2 351.7h30.1l-15.1 30z"/><path class="st2" d="M30.2 351.7h30l-15 30z"/><path class="st5" d="M.2 351.7h30l-15 30zm29.8 0h-30l15-30z"/><path class="st6" d="M60 351.7h-30l15-30z"/><path class="st7" d="M90.1 351.7h-30.1l15.1-30z"/><path class="st3" d="M45 321.7h30.1l-15.1 30z"/><path class="st1" d="M15 321.7h30l-15 30z"/><path class="st7" d="M43.2 321.7h-30l15-30.1z"/><path class="st1" d="M665.4 441.7h34.5l-17.3-30z"/><path class="st2" d="M631 441.7h34.4l-17.2-30z"/><path class="st3" d="M596.5 441.7h34.5l-17.3-30z"/><path class="st4" d="M562.1 441.7h34.4l-17.2-30z"/><path class="st5" d="M527.6 441.7h34.5l-17.3-30z"/><path class="st6" d="M493.1 441.7h34.5l-17.2-30z"/><path class="st7" d="M458.7 441.7h34.4l-17.2-30z"/><path class="st3" d="M510.4 411.7h-34.5l17.2 30z"/><path class="st1" d="M544.8 411.7h-34.4l17.2 30z"/><path class="st2" d="M579.3 411.7h-34.5l17.3 30z"/><path class="st5" d="M613.7 411.7h-34.4l17.2 30z"/><path class="st4" d="M648.2 411.7h-34.5l17.3 30z"/><path class="st7" d="M682.6 411.7h-34.4l17.2 30z"/><path class="st6" d="M717.1 411.7h-34.5l17.3 30zm-687.3 0h-29.2l13.5 30z"/><path class="st2" d="M681.5 411.7h34.5l-17.2-30z"/><path class="st3" d="M647.1 411.7h34.4l-17.2-30z"/><path class="st4" d="M612.6 411.7h34.5l-17.2-30z"/><path class="st5" d="M578.2 411.7h34.4l-17.2-30z"/><path class="st6" d="M543.7 411.7h34.5l-17.3-30z"/><path class="st7" d="M509.3 411.7h34.4l-17.2-30z"/><path class="st3" d="M560.9 381.7h-34.4l17.2 30z"/><path class="st1" d="M595.4 381.7h-34.5l17.3 30z"/><path class="st2" d="M629.9 381.7h-34.5l17.2 30z"/><path class="st5" d="M664.3 381.7h-34.4l17.2 30z"/><path class="st4" d="M698.8 381.7h-34.5l17.2 30zm-33.6 0h34.4l-17.2-30z"/><path class="st5" d="M630.7 381.7h34.5l-17.2-30z"/><path class="st6" d="M596.3 381.7h34.4l-17.2-30z"/><path class="st7" d="M561.8 381.7h34.5l-17.2-30z"/><path class="st3" d="M613.5 351.7h-34.4l17.2 30z"/><path class="st1" d="M648 351.7h-34.5l17.2 30z"/><path class="st2" d="M682.4 351.7h-34.4l17.2 30z"/><path class="st5" d="M716.9 351.7h-34.5l17.2 30zm-34.3 0h34.5l-17.2-30z"/><path class="st6" d="M648.2 351.7h34.4l-17.2-30z"/><path class="st7" d="M613.7 351.7h34.5l-17.2-30z"/><path class="st3" d="M665.4 321.7h-34.4l17.2 30z"/><path class="st1" d="M699.9 321.7h-34.5l17.2 30z"/><path class="st7" d="M665.9 321.7h34.4l-17.2-30.1z"/></svg>