<?xml version="1.0" encoding="utf-8"?>
<!-- Generator: Adobe Illustrator 18.1.1, SVG Export Plug-In . SVG Version: 6.00 Build 0)  -->
<svg version="1.1" id="Layer_1" xmlns="http://www.w3.org/2000/svg" xmlns:xlink="http://www.w3.org/1999/xlink" x="0px" y="0px"
	 viewBox="0 233.7 612 478.3" enable-background="new 0 233.7 612 478.3" xml:space="preserve">
<path fill="#80D0D8" d="M0,233.7h612V712H0V233.7z"/>
<path fill="#DD4357" d="M71.9,712H44l14-27.9L71.9,712z"/>
<path fill="#CDA18C" d="M99.9,712H71.9l14-27.9L99.9,712z"/>
<path fill="#B6CB83" d="M127.8,712H99.9l14-27.9L127.8,712z"/>
<path fill="#82C5BC" d="M155.9,712h-28.1l14.1-27.9L155.9,712z"/>
<path fill="#25ACB7" d="M183.8,712h-27.9l14-27.9L183.8,712z"/>
<path fill="#DD4357" d="M141.9,684.1h27.9l-14,27.9L141.9,684.1z"/>
<path fill="#F38945" d="M113.8,684.1h28.1L127.8,712L113.8,684.1z"/>
<path fill="#CB6594" d="M85.9,684.1h27.9l-14,27.9L85.9,684.1z"/>
<path fill="#B6CB83" d="M58,684.1h27.9l-14,27.9L58,684.1z"/>
<path fill="#CDA18C" d="M30,684.1H58L44,712L30,684.1z"/>
<path fill="#25ACB7" d="M2.1,684.1H30L16,712L2.1,684.1z"/>
<path fill="#DD4357" d="M30.9,684.1H2.9l14-27.9L30.9,684.1z"/>
<path fill="#CDA18C" d="M58.9,684.1H30.9l14-27.9L58.9,684.1z"/>
<path fill="#B6CB83" d="M86.9,684.1H58.9l14-27.9L86.9,684.1z"/>
<path fill="#82C5BC" d="M114.8,684.1H86.9l14-27.9L114.8,684.1z"/>
<path fill="#25ACB7" d="M142.8,684.1h-27.9l14-27.9L142.8,684.1z"/>
<path fill="#DD4357" d="M100.9,656h27.9l-14,27.9L100.9,656z"/>
<path fill="#F38945" d="M72.9,656h27.9l-14,27.9L72.9,656z"/>
<path fill="#CB6594" d="M44.9,656h28.1l-14,28.1L44.9,656z"/>
<path fill="#B6CB83" d="M16.9,656h27.9l-14,27.9L16.9,656z"/>
<path fill="#B6CB83" d="M45,656H17l14-27.9L45,656z"/>
<path fill="#82C5BC" d="M73,656H45L59,628.1L73,656z"/>
<path fill="#25ACB7" d="M101,656H73l14-27.9L101,656z"/>
<path fill="#DD4357" d="M59,628.1H87L73,656L59,628.1z"/>
<path fill="#F38945" d="M31,628.1H59L45,656L31,628.1z"/>
<path fill="#CB6594" d="M3.1,628.1H31L17,656L3.1,628.1z"/>
<path fill="#82C5BC" d="M30.8,628.1H2.8l14-27.9L30.8,628.1z"/>
<path fill="#25ACB7" d="M58.8,628.1H30.8l14.1-27.9L58.8,628.1z"/>
<path fill="#DD4357" d="M16.8,600.2h28.1l-14.1,27.9L16.8,600.2z"/>
<path fill="#CB6594" d="M562.7,712h32.1l-16-27.9L562.7,712z"/>
<path fill="#DD4357" d="M530.6,712h32.1l-16.2-27.9L530.6,712z"/>
<path fill="#CDA18C" d="M498.5,712h32.1l-16-27.9L498.5,712z"/>
<path fill="#B6CB83" d="M466.4,712h32.1l-16-27.9L466.4,712z"/>
<path fill="#82C5BC" d="M434.2,712h32.1l-16-27.9L434.2,712z"/>
<path fill="#25ACB7" d="M402.2,712h32.1l-16-27.9L402.2,712z"/>
<path fill="#DD4357" d="M450.3,684.1h-32.1l16,27.9L450.3,684.1z"/>
<path fill="#F38945" d="M482.4,684.1h-32.1l16,27.9L482.4,684.1z"/>
<path fill="#CB6594" d="M514.5,684.1h-32.1l16.2,27.9L514.5,684.1z"/>
<path fill="#B6CB83" d="M546.6,684.1h-32.1l16,27.9L546.6,684.1z"/>
<path fill="#CDA18C" d="M578.7,684.1h-32.1l16.2,27.9L578.7,684.1z"/>
<path fill="#25ACB7" d="M610.8,684.1h-32.1l16,27.9L610.8,684.1z"/>
<path fill="#DD4357" d="M577.7,684.1h32.1l-16-28.1L577.7,684.1z"/>
<path fill="#CDA18C" d="M545.5,684.1h32.1l-16-27.9L545.5,684.1z"/>
<path fill="#B6CB83" d="M513.5,684.1h32.1l-16-27.9L513.5,684.1z"/>
<path fill="#82C5BC" d="M481.3,684.1h32.1l-16.2-27.9L481.3,684.1z"/>
<path fill="#25ACB7" d="M449.4,684.1h32l-16-27.9L449.4,684.1z"/>
<path fill="#DD4357" d="M497.4,656h-32.1l16,27.9L497.4,656z"/>
<path fill="#F38945" d="M529.5,656h-32.1l16.2,27.9L529.5,656z"/>
<path fill="#CB6594" d="M561.7,656h-32.1l16,27.9L561.7,656z"/>
<path fill="#B6CB83" d="M593.7,656h-32.1l16,27.9L593.7,656z"/>
<path fill="#B6CB83" d="M562.4,656h32.1l-16-27.9L562.4,656z"/>
<path fill="#82C5BC" d="M530.4,656h32.1l-16-27.9L530.4,656z"/>
<path fill="#25ACB7" d="M498.3,656h32.1l-16-27.9L498.3,656z"/>
<path fill="#DD4357" d="M546.4,628.1h-32.1l16,27.9L546.4,628.1z"/>
<path fill="#F38945" d="M578.5,628.1h-32.1l16,27.9L578.5,628.1z"/>
<path fill="#CB6594" d="M610.6,628.1h-32.1l16,27.9L610.6,628.1z"/>
<path fill="#82C5BC" d="M578.7,628.1h32.1l-16-27.9L578.7,628.1z"/>
<path fill="#25ACB7" d="M546.6,628.1h32.1l-16-27.9L546.6,628.1z"/>
<path fill="#DD4357" d="M594.8,600.2h-32.1l16,27.9L594.8,600.2z"/>
</svg>
