<svg xmlns="http://www.w3.org/2000/svg" viewBox="0 0 792 612" enable-background="new 0 0 792 612"><style type="text/css">.st0{fill:#80D0D8;} .st1{fill:#F38945;} .st2{fill:#CB6594;} .st3{fill:#DD4357;} .st4{fill:#CDA18C;} .st5{fill:#B6CB83;} .st6{fill:#82C5BC;} .st7{fill:#25ACB7;} .st8{fill:none;}</style><path class="st0" d="M71.4 0h643.1v586.2h-643.1v-586.2z"/><path class="st1" d="M88.3 586.2h-29.5l14.8-29.4 14.7 29.4z"/><path class="st2" d="M117.7 586.2h-29.4l14.7-29.4 14.7 29.4zm-41.6-29.4h-29.4l14.7-29.4 14.7 29.4z"/><path class="st3" d="M147 586.2h-29.4l14.7-29.4 14.7 29.4z"/><path class="st4" d="M176.4 586.2h-29.4l14.7-29.4 14.7 29.4z"/><path class="st5" d="M205.8 586.2h-29.4l14.7-29.4 14.7 29.4z"/><path class="st6" d="M235.2 586.2h-29.5l14.8-29.4 14.7 29.4z"/><path class="st7" d="M264.6 586.2h-29.4l14.7-29.4 14.7 29.4z"/><path class="st3" d="M220.5 556.8h29.4l-14.7 29.4-14.7-29.4z"/><path class="st1" d="M191.1 556.8h29.5l-14.8 29.4-14.7-29.4z"/><path class="st2" d="M161.7 556.8h29.4l-14.7 29.4-14.7-29.4z"/><path class="st5" d="M132.3 556.8h29.4l-14.7 29.4-14.7-29.4z"/><path class="st4" d="M103 556.8h29.4l-14.7 29.4-14.7-29.4z"/><path class="st7" d="M73.6 556.8h29.4l-14.7 29.4-14.7-29.4z"/><path class="st3" d="M103.9 556.8h-29.4l14.7-29.4 14.7 29.4z"/><path class="st4" d="M133.3 556.8h-29.5l14.7-29.4 14.8 29.4z"/><path class="st5" d="M162.7 556.8h-29.4l14.7-29.4 14.7 29.4z"/><path class="st6" d="M192 556.8h-29.4l14.7-29.4 14.7 29.4z"/><path class="st7" d="M221.4 556.8h-29.4l14.7-29.4 14.7 29.4z"/><path class="st3" d="M177.4 527.4h29.4l-14.8 29.4-14.6-29.4z"/><path class="st1" d="M148 527.4h29.4l-14.7 29.4-14.7-29.4z"/><path class="st2" d="M118.5 527.4h29.5l-14.7 29.4-14.8-29.4z"/><path class="st5" d="M89.2 527.4h29.4l-14.7 29.4-14.7-29.4z"/><path class="st4" d="M59.8 527.4h29.4l-14.7 29.4-14.7-29.4zm29.5 0h-29.4l14.7-29.4 14.7 29.4z"/><path class="st5" d="M118.6 527.4h-29.3l14.7-29.4 14.6 29.4z"/><path class="st6" d="M148.1 527.4h-29.5l14.8-29.4 14.7 29.4z"/><path class="st7" d="M177.5 527.4h-29.4l14.7-29.4 14.7 29.4z"/><path class="st3" d="M133.4 498.1h29.4l-14.7 29.4-14.7-29.4z"/><path class="st1" d="M103.9 498.1h29.5l-14.8 29.4-14.7-29.4z"/><path class="st2" d="M74.6 498.1h29.4l-14.7 29.4-14.7-29.4z"/><path class="st5" d="M45.2 498.1h29.4l-14.7 29.4-14.7-29.4zm29.2 0h-29.4l14.7-29.5 14.7 29.5z"/><path class="st6" d="M103.8 498.1h-29.4l14.7-29.5 14.7 29.5z"/><path class="st7" d="M133.2 498.1h-29.5l14.8-29.5 14.7 29.5z"/><path class="st3" d="M89.1 468.6h29.5l-14.8 29.5-14.7-29.5z"/><path class="st1" d="M59.7 468.6h29.4l-14.7 29.5-14.7-29.5z"/><path class="st7" d="M87.3 468.6h-29.4l14.7-29.4 14.7 29.4z"/><path class="st1" d="M696.4 586.2h33.8l-16.9-29.4-16.9 29.4z"/><path class="st2" d="M662.7 586.2h33.7l-16.8-29.4-16.9 29.4z"/><path class="st3" d="M628.9 586.2h33.8l-16.9-29.4-16.9 29.4z"/><path class="st4" d="M595.3 586.2h33.7l-16.8-29.4-16.9 29.4z"/><path class="st5" d="M561.5 586.2h33.8l-16.9-29.4-16.9 29.4z"/><path class="st6" d="M527.7 586.2h33.8l-16.8-29.4-17 29.4z"/><path class="st7" d="M494 586.2h33.7l-16.8-29.4-16.9 29.4z"/><path class="st3" d="M544.6 556.8h-33.8l16.8 29.4 17-29.4z"/><path class="st1" d="M578.3 556.8h-33.7l16.8 29.4 16.9-29.4z"/><path class="st2" d="M612.1 556.8h-33.8l16.9 29.4 16.9-29.4z"/><path class="st5" d="M645.8 556.8h-33.7l16.8 29.4 16.9-29.4z"/><path class="st4" d="M679.5 556.8h-33.8l16.9 29.4 16.9-29.4z"/><path class="st7" d="M713.2 556.8h-33.7l16.8 29.4 16.9-29.4z"/><path class="st6" d="M747 556.8h-33.8l16.9 29.4 16.9-29.4zm-672.8 0h-28.6l13.2 29.4 15.4-29.4z"/><path class="st2" d="M712.1 556.8h33.8l-16.8-29.4-17 29.4z"/><path class="st3" d="M678.5 556.8h33.7l-16.8-29.4-16.9 29.4z"/><path class="st4" d="M644.7 556.8h33.8l-16.8-29.4-17 29.4z"/><path class="st5" d="M611 556.8h33.7l-16.8-29.4-16.9 29.4z"/><path class="st6" d="M577.2 556.8h33.8l-16.9-29.4-16.9 29.4z"/><path class="st7" d="M543.6 556.8h33.7l-16.8-29.4-16.9 29.4z"/><path class="st3" d="M594.1 527.4h-33.7l16.8 29.4 16.9-29.4z"/><path class="st1" d="M627.8 527.4h-33.8l16.9 29.4 16.9-29.4z"/><path class="st2" d="M661.6 527.4h-33.8l16.8 29.4 17-29.4z"/><path class="st5" d="M695.3 527.4h-33.7l16.8 29.4 16.9-29.4z"/><path class="st4" d="M729.1 527.4h-33.8l16.8 29.4 17-29.4zm-32.9 0h33.7l-16.9-29.3-16.8 29.3z"/><path class="st5" d="M662.4 527.4h33.8l-16.8-29.4-17 29.4z"/><path class="st6" d="M628.7 527.4h33.7l-16.8-29.4-16.9 29.4z"/><path class="st7" d="M595 527.4h33.8l-16.8-29.4-17 29.4z"/><path class="st3" d="M645.6 498.1h-33.7l16.8 29.4 16.9-29.4z"/><path class="st1" d="M679.3 498.1h-33.8l16.8 29.4 17-29.4z"/><path class="st2" d="M713 498.1h-33.7l16.8 29.4 16.9-29.4z"/><path class="st5" d="M746.8 498.1h-33.8l16.8 29.4 17-29.4zm-33.6 0h33.8l-16.8-29.5-17 29.5z"/><path class="st6" d="M679.5 498.1h33.7l-16.8-29.5-16.9 29.5z"/><path class="st7" d="M645.8 498.1h33.8l-16.8-29.5-17 29.5z"/><path class="st3" d="M696.4 468.6h-33.7l16.8 29.5 16.9-29.5z"/><path class="st1" d="M730.1 468.6h-33.8l16.8 29.5 17-29.5z"/><path class="st7" d="M696.9 468.6h33.7l-16.8-29.4-16.9 29.4z"/><path class="st8" d="M375.1 548.2h40.5v59h-40.5v-59z"/></svg>