<svg xmlns="http://www.w3.org/2000/svg" viewBox="0 547.5 612 478.3" enable-background="new 0 547.5 612 478.3"><path fill="#80D0D8" d="M0 547.5h612v478.3h-612v-478.3z"/><path fill="#DD4357" d="M71.9 1025.8h-27.9l14-27.9 13.9 27.9z"/><path fill="#CDA18C" d="M99.9 1025.8h-28l14-27.9 14 27.9z"/><path fill="#B6CB83" d="M127.8 1025.8h-27.9l14-27.9 13.9 27.9z"/><path fill="#82C5BC" d="M155.9 1025.8h-28.1l14.1-27.9 14 27.9z"/><path fill="#25ACB7" d="M183.8 1025.8h-27.9l14-27.9 13.9 27.9z"/><path fill="#DD4357" d="M141.9 997.8h27.9l-14 27.9-13.9-27.9z"/><path fill="#F38945" d="M113.8 997.8h28.1l-14.1 27.9-14-27.9z"/><path fill="#CB6594" d="M85.9 997.8h27.9l-14 27.9-13.9-27.9z"/><path fill="#B6CB83" d="M58 997.8h27.9l-14 27.9-13.9-27.9z"/><path fill="#CDA18C" d="M30 997.8h28l-14 27.9-14-27.9z"/><path fill="#25ACB7" d="M2.1 997.8h27.9l-14 27.9-13.9-27.9z"/><path fill="#DD4357" d="M30.9 997.8h-28l14-27.9 14 27.9z"/><path fill="#CDA18C" d="M58.9 997.8h-28l14-27.9 14 27.9z"/><path fill="#B6CB83" d="M86.9 997.8h-28l14-27.9 14 27.9z"/><path fill="#82C5BC" d="M114.8 997.8h-27.9l14-27.9 13.9 27.9z"/><path fill="#25ACB7" d="M142.8 997.8h-27.9l14-27.9 13.9 27.9z"/><path fill="#DD4357" d="M100.9 969.8h27.9l-14 27.9-13.9-27.9z"/><path fill="#F38945" d="M72.9 969.8h27.9l-14 27.9-13.9-27.9z"/><path fill="#CB6594" d="M44.9 969.8h28.1l-14 28.1-14.1-28.1z"/><path fill="#B6CB83" d="M16.9 969.8h27.9l-14 27.9-13.9-27.9zM45 969.8h-28l14-27.9 14 27.9z"/><path fill="#82C5BC" d="M73 969.8h-28l14-27.9 14 27.9z"/><path fill="#25ACB7" d="M101 969.8h-28l14-27.9 14 27.9z"/><path fill="#DD4357" d="M59 941.8h28l-14 27.9-14-27.9z"/><path fill="#F38945" d="M31 941.8h28l-14 27.9-14-27.9z"/><path fill="#CB6594" d="M3.1 941.8h27.9l-14 27.9-13.9-27.9z"/><path fill="#82C5BC" d="M30.8 941.8h-28l14-27.9 14 27.9z"/><path fill="#25ACB7" d="M58.8 941.8h-28l14.1-28 13.9 28z"/><path fill="#DD4357" d="M16.8 913.9h28.1l-14.1 27.9-14-27.9z"/><path fill="#CB6594" d="M562.7 1025.8h32.1l-16-27.9-16.1 27.9z"/><path fill="#DD4357" d="M530.6 1025.8h32.1l-16.2-27.9-15.9 27.9z"/><path fill="#CDA18C" d="M498.5 1025.8h32.1l-16-27.9-16.1 27.9z"/><path fill="#B6CB83" d="M466.4 1025.8h32.1l-16-27.9-16.1 27.9z"/><path fill="#82C5BC" d="M434.2 1025.8h32.1l-16-27.9-16.1 27.9z"/><path fill="#25ACB7" d="M402.2 1025.8h32.1l-16-27.9-16.1 27.9z"/><path fill="#DD4357" d="M450.3 997.8h-32.1l16 27.9 16.1-27.9z"/><path fill="#F38945" d="M482.4 997.8h-32.1l16 27.9 16.1-27.9z"/><path fill="#CB6594" d="M514.5 997.8h-32.1l16.2 27.9 15.9-27.9z"/><path fill="#B6CB83" d="M546.6 997.8h-32.1l16 27.9 16.1-27.9z"/><path fill="#CDA18C" d="M578.7 997.8h-32.1l16.2 27.9 15.9-27.9z"/><path fill="#25ACB7" d="M610.8 997.8h-32.1l16 27.9 16.1-27.9z"/><path fill="#DD4357" d="M577.7 997.8h32.1l-16-28.1-16.1 28.1z"/><path fill="#CDA18C" d="M545.5 997.8h32.1l-16-27.9-16.1 27.9z"/><path fill="#B6CB83" d="M513.5 997.8h32.1l-16-27.9-16.1 27.9z"/><path fill="#82C5BC" d="M481.3 997.8h32.1l-16.2-28-15.9 28z"/><path fill="#25ACB7" d="M449.4 997.8h32l-16-27.9-16 27.9z"/><path fill="#DD4357" d="M497.4 969.8h-32.1l16 27.9 16.1-27.9z"/><path fill="#F38945" d="M529.5 969.8h-32.1l16.2 27.9 15.9-27.9z"/><path fill="#CB6594" d="M561.7 969.8h-32.1l16 27.9 16.1-27.9z"/><path fill="#B6CB83" d="M593.7 969.8h-32.1l16 27.9 16.1-27.9zM562.4 969.8h32.1l-16-27.9-16.1 27.9z"/><path fill="#82C5BC" d="M530.4 969.8h32.1l-16-27.9-16.1 27.9z"/><path fill="#25ACB7" d="M498.3 969.8h32.1l-16-27.9-16.1 27.9z"/><path fill="#DD4357" d="M546.4 941.8h-32.1l16 27.9 16.1-27.9z"/><path fill="#F38945" d="M578.5 941.8h-32.1l16 27.9 16.1-27.9z"/><path fill="#CB6594" d="M610.6 941.8h-32.1l16 27.9 16.1-27.9z"/><path fill="#82C5BC" d="M578.7 941.8h32.1l-16-27.9-16.1 27.9z"/><path fill="#25ACB7" d="M546.6 941.8h32.1l-16-27.9-16.1 27.9z"/><path fill="#DD4357" d="M594.8 913.9h-32.1l16 27.9 16.1-27.9z"/></svg>