<svg xmlns="http://www.w3.org/2000/svg" viewBox="0 0 705 427" enable-background="new 0 0 705 427"><style type="text/css">.st0{fill:#00AEEF;} .st1{fill:none;} .st2{fill:#FFFFFF;}</style><path class="st0" d="M337.2 230h17.9l-9-29.3zm-148.9-136h-6.3v44.6h6.2c5.3 0 9-.6 11.2-1.8 2.2-1.2 4-3.2 5.2-6.1 1.3-2.9 1.9-7.6 1.9-14.2 0-8.6-1.4-14.6-4.2-17.8-2.8-3.1-7.5-4.7-14-4.7zm256.7 104.1c-1.7-1.4-4.8-2.1-9.4-2.1h-11.1v16.6h10.6c1.1 0 3.4-.4 6.7-1.1 1.7-.3 3-1.2 4.1-2.6 1.1-1.4 1.6-3 1.6-4.7 0-2.7-.8-4.7-2.5-6.1zm67.5-101.5l-8.9 29.4h17.9zm-184.8 0l-8.9 29.4h17.9zm-327.7-96.6v427h705v-427h-705zm499.1 75.5h27.5l30.7 81.6h-26.4l-4.1-13.5h-28.6l-4 13.5h-25.7l30.6-81.6zm-117.3 0h23.5l30.7 45.1v-45.1h23.8v81.6h-23.8l-30.6-44.8v44.8h-23.7v-81.6zm-67.5 0h27.5l30.7 81.6h-26.5l-4.1-13.5h-28.6l-4 13.5h-25.7l30.7-81.6zm-67 0h25.3v81.6h-25.3v-81.6zm-134 185.6h-27.3l-30.8-81.6h26.4l18.4 58.7 18.1-58.7h25.6l-30.4 81.6zm107.3 0h-68.8v-81.6h67.6v17.4h-42.4v13h39.2v16.6h-39.2v16.1h43.5v18.5zm8.3-124.8c-2 4.8-4.7 8.8-8.3 12.1-3.5 3.2-7.3 5.4-11.4 6.5-5.5 1.5-10.5 2.2-15 2.2h-37.5v-81.6h37.5c7.4 0 13.3 1 17.9 3s8.3 4.9 11.3 8.6c3 3.7 5.1 8.1 6.5 13.1 1.3 5 2 10.2 2 15.8 0 8.7-1 15.5-3 20.3zm69.8 124.8h-64.6v-81.6h25.2v61.5h39.4v20.1zm65.7 0l-4.1-13.5h-28.6l-4 13.5h-25.7l30.7-81.6h27.5l30.7 81.6h-26.5zm86.6 0l-13.5-24.9c-1.7-3.2-3.2-5.3-4.6-6.3-1.8-1.3-3.9-1.9-6.2-1.9h-2.2v33.1h-25.3v-81.6h42c7.8 0 13.7.7 17.9 2s7.4 3.8 10 7.4c2.5 3.6 3.8 8 3.8 13.2 0 4.5-1 8.4-2.9 11.7-1.9 3.3-4.6 5.9-8 8-2.2 1.3-5.1 2.4-8.9 3.2 3 1 5.2 2 6.6 3 .9.7 2.3 2.1 4 4.3 1.8 2.2 2.9 3.9 3.5 5.1l12.2 23.6h-28.4zm109-20.8c-2 4.8-4.7 8.8-8.3 12.1-3.5 3.2-7.3 5.4-11.4 6.5-5.5 1.5-10.5 2.2-15 2.2h-37.5v-81.6h37.5c7.4 0 13.3 1 17.9 3s8.3 4.9 11.3 8.6c3 3.7 5.1 8.1 6.5 13.1 1.3 5 2 10.2 2 15.8 0 8.8-1 15.5-3 20.3zm85 20.8h-68.8v-81.6h67.6v17.4h-42.3v13h39.2v16.6h-39.2v16.1h43.5v18.5zm-125.6-63.1h-6.3v44.6h6.2c5.3 0 9-.6 11.2-1.8 2.2-1.2 4-3.2 5.2-6.1 1.3-2.9 1.9-7.6 1.9-14.2 0-8.6-1.4-14.6-4.2-17.8-2.8-3.1-7.5-4.7-14-4.7z"/><path class="st1" d="M0 303h705v39h-705z"/><path class="st2" d="M256.6 314.8v-2.3h8.2v7.2c-1.3 1-2.6 1.8-3.9 2.3-1.3.5-2.7.8-4.1.8-1.9 0-3.6-.4-5.2-1.2-1.6-.8-2.7-2-3.5-3.5s-1.2-3.3-1.2-5.2c0-1.9.4-3.6 1.2-5.3.8-1.6 1.9-2.8 3.4-3.6s3.2-1.2 5.1-1.2c1.4 0 2.7.2 3.8.7 1.1.5 2 1.1 2.7 1.9s1.1 1.9 1.5 3.2l-2.3.6c-.3-1-.7-1.8-1.1-2.3s-1-1-1.8-1.4c-.8-.3-1.7-.5-2.7-.5-1.2 0-2.2.2-3 .5-.9.4-1.5.8-2.1 1.4s-.9 1.2-1.2 1.9c-.5 1.2-.7 2.5-.7 3.9 0 1.7.3 3.2.9 4.3.6 1.2 1.5 2 2.6 2.6s2.3.8 3.6.8c1.1 0 2.2-.2 3.2-.6 1.1-.4 1.9-.9 2.4-1.4v-3.6h-5.8zm11.9 7.5v-14h2.1v2.1c.5-1 1-1.6 1.5-2 .5-.3 1-.5 1.5-.5.8 0 1.6.3 2.4.8l-.8 2.2c-.6-.3-1.2-.5-1.7-.5s-1 .2-1.4.5c-.4.3-.7.7-.9 1.3-.3.8-.4 1.8-.4 2.8v7.3h-2.3zm18.4-1.7c-.9.7-1.7 1.3-2.5 1.6-.8.3-1.7.5-2.6.5-1.5 0-2.7-.4-3.5-1.1-.8-.8-1.2-1.7-1.2-2.9 0-.7.2-1.3.5-1.9.3-.6.7-1 1.2-1.4.5-.3 1.1-.6 1.7-.8.5-.1 1.2-.2 2.1-.4 1.9-.2 3.3-.5 4.2-.8v-.6c0-1-.2-1.6-.7-2-.6-.5-1.5-.8-2.7-.8-1.1 0-1.9.2-2.5.6-.5.4-.9 1.1-1.2 2.1l-2.3-.3c.2-1 .6-1.8 1-2.4.5-.6 1.2-1.1 2.1-1.4.9-.3 2-.5 3.2-.5 1.2 0 2.2.1 2.9.4s1.3.6 1.6 1.1c.4.4.6 1 .7 1.6.1.4.1 1.1.1 2.2v3.2c0 2.2.1 3.6.2 4.2.1.6.3 1.1.6 1.7h-2.5c-.2-.7-.4-1.2-.4-1.9zm-.2-5.3c-.9.4-2.2.7-3.9.9-1 .1-1.7.3-2.1.5-.4.2-.7.4-.9.8-.2.3-.3.7-.3 1.1 0 .6.2 1.2.7 1.6.5.4 1.2.6 2.1.6.9 0 1.7-.2 2.4-.6.7-.4 1.2-.9 1.6-1.6.3-.5.4-1.3.4-2.4v-.9zm6.3 12.4v-19.4h2.2v1.8c.5-.7 1.1-1.2 1.7-1.6.6-.4 1.4-.5 2.3-.5 1.2 0 2.2.3 3.2.9s1.6 1.5 2.1 2.6.7 2.3.7 3.7c0 1.4-.3 2.7-.8 3.9-.5 1.1-1.3 2-2.2 2.6-1 .6-2 .9-3.1.9-.8 0-1.5-.2-2.1-.5-.6-.3-1.1-.8-1.5-1.3v6.8h-2.5zm2.2-12.3c0 1.8.4 3.1 1.1 4s1.6 1.3 2.6 1.3c1.1 0 2-.4 2.7-1.3.8-.9 1.1-2.3 1.1-4.1 0-1.8-.4-3.1-1.1-4s-1.6-1.3-2.6-1.3-1.9.5-2.7 1.4c-.7.8-1.1 2.2-1.1 4zm13.1 6.9v-19.3h2.4v6.9c1.1-1.3 2.5-1.9 4.2-1.9 1 0 1.9.2 2.7.6.8.4 1.3 1 1.6 1.7.3.7.5 1.8.5 3.1v8.9h-2.4v-8.9c0-1.2-.3-2-.8-2.6-.5-.5-1.2-.8-2.2-.8-.7 0-1.4.2-2 .5-.6.4-1.1.9-1.3 1.5-.3.6-.4 1.5-.4 2.6v7.7h-2.3zm15.3-16.6v-2.7h2.4v2.7h-2.4zm0 16.6v-14h2.4v14h-2.4zm15.4-5.1l2.3.3c-.3 1.6-.9 2.9-2 3.8-1.1.9-2.3 1.4-3.9 1.4-1.9 0-3.5-.6-4.6-1.9-1.2-1.3-1.7-3-1.7-5.4 0-1.5.3-2.8.8-4s1.3-2 2.3-2.6c1-.6 2.1-.9 3.3-.9 1.5 0 2.8.4 3.7 1.2 1 .8 1.6 1.9 1.9 3.3l-2.3.4c-.2-.9-.6-1.6-1.2-2.1s-1.2-.7-2-.7c-1.2 0-2.2.4-2.9 1.3-.7.9-1.1 2.2-1.1 4.1 0 1.9.4 3.2 1.1 4.1.7.9 1.7 1.3 2.8 1.3.9 0 1.7-.3 2.3-.9.6-.6 1-1.5 1.2-2.7zm12.7 5.1v-19.3h6.7c1.5 0 2.7.1 3.4.3 1.1.3 2.1.7 2.8 1.4 1 .9 1.8 2 2.3 3.3.5 1.3.8 2.9.8 4.6 0 1.5-.2 2.8-.5 3.9s-.8 2.1-1.3 2.8c-.5.7-1.1 1.3-1.8 1.8-.6.4-1.4.8-2.3 1-.9.2-1.9.3-3.1.3h-7zm2.6-2.2h4.1c1.3 0 2.3-.1 3-.4.7-.2 1.3-.6 1.7-1 .6-.6 1.1-1.4 1.4-2.4.3-1 .5-2.3.5-3.7 0-2-.3-3.6-1-4.7s-1.5-1.8-2.4-2.2c-.7-.3-1.8-.4-3.3-.4h-4.1v14.8zm26.5-2.3l2.5.3c-.4 1.4-1.1 2.5-2.1 3.3s-2.4 1.2-4 1.2c-2 0-3.7-.6-4.9-1.9-1.2-1.3-1.8-3-1.8-5.3 0-2.4.6-4.2 1.8-5.5s2.8-2 4.7-2c1.9 0 3.4.6 4.6 1.9 1.2 1.3 1.8 3.1 1.8 5.4v.6h-10.4c.1 1.5.5 2.7 1.3 3.5.8.8 1.8 1.2 2.9 1.2.9 0 1.6-.2 2.2-.7s1-1 1.4-2zm-7.8-3.8h7.8c-.1-1.2-.4-2.1-.9-2.6-.8-.9-1.7-1.4-2.9-1.4-1.1 0-2 .4-2.7 1.1-.8.7-1.3 1.7-1.3 2.9zm12.5 4.2l2.3-.4c.1.9.5 1.7 1.1 2.2.6.5 1.4.8 2.5.8s1.9-.2 2.4-.7c.5-.4.8-1 .8-1.6 0-.5-.2-1-.7-1.3-.3-.2-1.1-.5-2.4-.8-1.7-.4-2.9-.8-3.6-1.1-.7-.3-1.2-.8-1.5-1.3-.3-.6-.5-1.2-.5-1.9 0-.6.1-1.2.4-1.7.3-.5.7-1 1.2-1.3.4-.3.9-.5 1.5-.7.6-.2 1.3-.3 2-.3 1.1 0 2.1.2 2.9.5.8.3 1.4.7 1.8 1.3.4.5.7 1.3.8 2.2l-2.3.3c-.1-.7-.4-1.3-.9-1.7-.5-.4-1.2-.6-2.1-.6-1.1 0-1.9.2-2.3.5-.5.4-.7.8-.7 1.3 0 .3.1.6.3.8.2.3.5.5.9.6.2.1.9.3 2.1.6 1.7.4 2.8.8 3.5 1.1.7.3 1.2.7 1.6 1.2s.6 1.2.6 2-.2 1.5-.7 2.2c-.5.7-1.1 1.2-2 1.6-.9.4-1.9.6-3 .6-1.8 0-3.2-.4-4.2-1.1-.9-.7-1.5-1.9-1.8-3.3zm14.7-12.5v-2.7h2.4v2.7h-2.4zm0 16.6v-14h2.4v14h-2.4zm5.9 1.2l2.3.3c.1.7.4 1.2.8 1.6.6.4 1.4.7 2.4.7 1.1 0 1.9-.2 2.5-.7s1-1.1 1.2-1.8c.1-.5.2-1.5.2-3-1 1.2-2.3 1.8-3.9 1.8-1.9 0-3.4-.7-4.5-2.1s-1.6-3.1-1.6-5c0-1.3.2-2.6.7-3.7.5-1.1 1.2-2 2.1-2.6.9-.6 2-.9 3.2-.9 1.7 0 3 .7 4.1 2v-1.7h2.2v12.1c0 2.2-.2 3.7-.7 4.6-.4.9-1.1 1.6-2.1 2.2-1 .5-2.1.8-3.6.8-1.7 0-3-.4-4-1.1-.9-.9-1.4-2-1.3-3.5zm1.9-8.4c0 1.8.4 3.2 1.1 4s1.6 1.3 2.7 1.3 2-.4 2.7-1.3c.7-.8 1.1-2.2 1.1-3.9 0-1.7-.4-3-1.1-3.9-.8-.9-1.7-1.3-2.7-1.3-1.1 0-2 .4-2.7 1.3-.7.8-1.1 2.1-1.1 3.8zm13.8 7.2v-14h2.1v2c1-1.5 2.5-2.3 4.5-2.3.8 0 1.6.2 2.3.5.7.3 1.2.7 1.6 1.2.4.5.6 1.1.7 1.8.1.4.1 1.2.1 2.3v8.6h-2.4v-8.5c0-1-.1-1.7-.3-2.2-.2-.5-.5-.9-1-1.1-.5-.3-1-.4-1.7-.4-1 0-1.9.3-2.6 1-.7.6-1.1 1.9-1.1 3.7v7.6h-2.2zm24.9-4.5l2.5.3c-.4 1.4-1.1 2.5-2.1 3.3-1 .8-2.4 1.2-4 1.2-2 0-3.7-.6-4.9-1.9-1.2-1.3-1.8-3-1.8-5.3 0-2.4.6-4.2 1.8-5.5s2.8-2 4.7-2c1.9 0 3.4.6 4.6 1.9 1.2 1.3 1.8 3.1 1.8 5.4v.6h-10.4c.1 1.5.5 2.7 1.3 3.5.8.8 1.8 1.2 2.9 1.2.9 0 1.6-.2 2.2-.7s1-1 1.4-2zm-7.8-3.8h7.8c-.1-1.2-.4-2.1-.9-2.6-.8-.9-1.7-1.4-2.9-1.4-1.1 0-2 .4-2.7 1.1-.8.7-1.3 1.7-1.3 2.9zm13.4 8.3v-14h2.1v2.1c.5-1 1-1.6 1.5-2 .5-.3 1-.5 1.5-.5.8 0 1.6.3 2.4.8l-.8 2.2c-.6-.3-1.2-.5-1.7-.5s-1 .2-1.4.5c-.4.3-.7.7-.9 1.3-.3.8-.4 1.8-.4 2.8v7.3h-2.3z"/></svg>