<svg xmlns="http://www.w3.org/2000/svg" xmlns:xlink="http://www.w3.org/1999/xlink" viewBox="0 0 792 612" enable-background="new 0 0 792 612"><style type="text/css">.st0{fill:none;stroke:#000000;stroke-width:1.0307;stroke-linejoin:round;stroke-miterlimit:10;} .st1{fill:none;stroke:#111820;stroke-width:1.0307;stroke-linejoin:round;stroke-miterlimit:10;} .st2{fill:#633C20;} .st3{fill:none;stroke:#633C20;stroke-width:1.0307;stroke-linejoin:round;stroke-miterlimit:10;} .st4{fill:#633C20;stroke:#633C20;stroke-width:1.0307;stroke-linejoin:round;stroke-miterlimit:10;} .st5{fill:#FFCB8B;} .st6{fill:#FFCE83;} .st7{fill:#F295CD;}</style><g id="BLACK"><path class="st0" d="M447.4 213.7"/><path class="st1" d="M469.7 228.6c.8 12.8-19.2 16.2-19.2 16-33.9 6.7-70.7 4.2-70.7 4.2-53.5-2.1-49.3-17.1-49.3-17.1l-1.5 3.3c-2 14.3-1.1 24.6 2.9 39.6 2.9 10.8 8 20.9 15.2 29.5 21.3 25.2 47.7 23.9 47.7 23.9s56.5 4.4 69.3-43.5c0 0 8.1-13.1 6.7-52.6l-1.1-3.3zm-115.2 82.9s-54.5 14.1-29.8 25c0 0 51.2 24.2 121.6 6.7 0 0 48-12.7 29.2-24.5 0 0-9.5-7.9-27-8.1 0 0-5.4 4.2-6.6 5.6v7.6s17.4 5.7-4.7 11.3c0 0-48.4 10-79.6-.8-1.2-.4-2.2-1.3-2.6-2.4-.7-1.7-.2-4.2 5.7-6.4l.1-9c-.1-.1-2.3-1.1-6.3-5z"/><image width="1070" height="1127" xlink:href="582ADBDC8638446C.jpg" transform="matrix(.239 -.026 .026 .239 -649.511 -343.488)" overflow="visible"/><path class="st1" d="M478.3 295.7c.4-2.2 0-4.6-1.1-6.5-1.2-1.9-3.2-3.3-5.4-3.5-2.2-.2-4.6 1-5.6 3s-.5 4.7 1.3 6c-.6-.9-.5-2.1.2-2.7.7-.6 1.3-1.3 2.2-1.7.7-.3 1.5-.5 2.3-.3 1.6.4 2.3 2.3 2.4 3.9.1 1 0 2.1-.5 3-.9 1.6-3 2-4.8 1.8-1-.1-1.9-.3-2.7-.8-2.3-1.4-2.5-4.7-1.6-7.2.7-2 1.9-3.7 3.4-5.1 1.5-1.3 3.3-2.3 5-3.4 1.9-1.2 3.9-2.8 5.8-4.2 4.1-2.9 7.3-7 9.1-11.6.7-1.9 1.3-3.9 1.7-5.9 1.1-5.2 1.8-10.8-.4-15.6-.8-1.7-2-3.3-3.6-4.2-1.3-.7-2.8-1-4.3-1-3.6-.1-7.7.9-10.3 3.5-.2 2.5 0 5.4-.4 8.1 1-2.2 2.2-4.4 3.9-6.1 1.7-1.7 4.2-2.8 6.5-2.2 2.1.5 3.7 2.2 4.5 4.2.8 2 .9 4.2.8 6.3-.6 11.6-7.4 22.6-17.4 28.5-1.4.8-2.9 1.6-4.1 2.7-1.4 1.3-2.5 4.6-3.2 6.3-.9 2.2-1.5 3.2-1.2 5.5.3 2.3 1.7 4 3.6 5.4 2.6 1.9 5.4 1.5 8.3.5 3-.9 5.1-3.5 5.6-6.7zm-117.6 20.7v11.7c0 1.1.9 2.1 2.1 2.1h77.1c1.1 0 2.1-.9 2.1-2.1v-11.9c-.2.1-16.6 10.6-39.8 11.8 0 .1-24.4 1.3-41.5-11.6z"/></g><g id="BROWN"><path class="st2" d="M184.6 238.1h28.5l28.1 73.8 28.4-73.8h28.3v105.3h-17.8v-87.4h-.3l-32 87.4h-13.1l-32-87.4h-.3v87.4h-17.8v-105.3zm317.5 3.9h24.8l51 78.2h.3v-78.2h18.7v105.3h-23.8l-52-80.7h-.3v80.7h-18.7v-105.3zm-108.4-120.4c-1.5 4.7-.1 10.6 3.1 13.6 1.3 1.2 2.8 1.9 4.1 3.2 2.3 2.5 3.2 6.8 2.5 10.5s-3 6.9-5.8 8.5c4.2-2.9 5.6-10.7 2.8-15.7-2.4-4.3-7-5.8-9.6-9.9-2.1-3.4-2.6-8.2-1.6-12.3s3.5-7.6 6.4-9.8c1.6-1.2 3.3-2.1 4.7-3.6 2.4-2.7 3.3-7.1 3.1-11.2-.2-4.1-1.5-8-2.7-11.8 3 7.1 6.1 15.6 3.3 22.8-2.3 6.3-8.4 9.3-10.3 15.7zm.1-25.2c-3.2-3.7-4.8-9.6-4.2-15.1.4-3.5 1.7-6.7 2.8-10 1.1-3.2 2.2-6.7 2.1-10.2s-1.6-7.3-4.2-8.5c2.5 4.7 1.5 11.1-.2 16.3-1.7 5.2-4.1 10.4-4 16.1.1 7.1 4.6 13.7 10 14.7-1.7-2.4-.1-.7-2.3-3.3zm-208 277.1h47.2c7.9 0 15.5 1.2 22.8 3.6 7.3 2.4 13.8 6.1 19.5 11.1 5.6 5 10.2 11.2 13.5 18.7 3.4 7.5 5.1 16.3 5.1 26.5 0 10.3-1.9 19.2-5.8 26.7s-8.9 13.7-15.1 18.6c-6.1 4.9-13 8.6-20.5 11-7.5 2.4-14.9 3.6-22.1 3.6h-44.7v-119.8zm37.2 100.6c6.7 0 12.9-.8 18.9-2.3 5.9-1.5 11.1-3.9 15.5-7.1 4.4-3.2 7.9-7.4 10.4-12.5s3.8-11.4 3.8-18.7c0-7.2-1.1-13.4-3.4-18.6-2.3-5.2-5.4-9.4-9.4-12.6-4-3.2-8.7-5.6-14.2-7.1s-11.5-2.3-18-2.3h-19.5v81.2h15.9zm130-100.6h18.4l51.6 119.8h-24.4l-11.2-27.4h-52l-10.8 27.4h-23.9l52.3-119.8zm27.1 74.2l-18.4-48.7-18.8 48.7h37.2zm73.1-5.6l-45-68.5h26.7l29.4 47.7 29.8-47.7h25.4l-45 68.5v51.3h-21.3v-51.3zm136-42.8c-2.3-3.3-5.3-5.7-9.1-7.2s-7.8-2.3-11.9-2.3c-2.5 0-4.9.3-7.2.8-2.3.6-4.4 1.5-6.3 2.7-1.9 1.2-3.4 2.9-4.5 4.8-1.1 2-1.7 4.3-1.7 7 0 4.1 1.4 7.2 4.2 9.3 2.8 2.1 6.3 4 10.5 5.6 4.2 1.6 8.7 3.1 13.7 4.6 5 1.5 9.5 3.5 13.7 6.1 4.2 2.6 7.7 6 10.5 10.3 2.8 4.3 4.2 10 4.2 17.1 0 6.4-1.2 12-3.6 16.8-2.4 4.8-5.6 8.8-9.6 11.9-4 3.2-8.7 5.5-14 7.1-5.3 1.6-10.9 2.4-16.8 2.4-7.4 0-14.6-1.2-21.5-3.7s-12.8-6.7-17.8-12.5l16.1-15.6c2.6 4 6 7 10.2 9.2s8.7 3.3 13.5 3.3c2.5 0 5-.3 7.4-1 2.5-.7 4.7-1.7 6.8-3 2-1.4 3.7-3.1 4.9-5.2 1.2-2.1 1.9-4.5 1.9-7.2 0-4.4-1.4-7.8-4.2-10.2-2.8-2.4-6.3-4.4-10.5-6-4.2-1.6-8.7-3.2-13.7-4.7s-9.5-3.5-13.7-6c-4.2-2.5-7.7-5.9-10.5-10.2-2.8-4.2-4.2-9.9-4.2-17 0-6.2 1.3-11.6 3.8-16.1 2.5-4.5 5.9-8.3 10-11.3s8.8-5.2 14.1-6.7c5.3-1.5 10.7-2.2 16.2-2.2 6.3 0 12.4 1 18.4 2.9 5.9 1.9 11.3 5.1 16 9.5l-15.3 16.7z"/><path class="st3" d="M365.3 276.8c-.8-1.7-3.2-2.2-4.9-1.4-1.7.7-2.9 2.4-3.6 4.1-1.8 4.2-1.6 9.3.7 13.3 1.6 2.9 4.6 5.3 7.9 5.1 2.1-.1 4.4-1.9 4-4-.1-.3-.2-.6-.1-.9m5.1-14.4c-.9 4.7-.7 7.5 0 12.3.4 2.6 1.5 5.5 3.9 6.4 2.2.8 4.6-.4 6-2.3 1.3-1.9 1.7-4.3 1.7-6.5 0-1.8-.1-3.6-.4-5.3-.4-2.1-1-4.2-2.4-5.9-1.4-1.6-3.2-2.7-5.3-2 .1-.1-2.9.2-3.5 3.3zm17.1 19.5l-.9-18.6c0-.4 0-.9.2-1.3.4-.8 1.4-.9 2.2-1l9.2-1m-11.3 10.3c.1 0 6 .3 7.1-.3m11.1 11.7c-2.5-5.9-2.5-12.6-2.4-19 0-.3 0-.7.2-1 .3-.3.8-.3 1.3-.3 2.2.1 4.4-.4 6.4-1.3m-7.8 10.3s5.2.8 6.4.4m13.6-9.6c-1.6-.7-3.3-.8-5-.4-.3.1-.5.2-.7.4-.1.2-.1.5-.1.7.3 6 .8 11.9 1.3 17.9.1.6.2 1.3.7 1.6.4.2.9.1 1.3.1 1.8-.3 3.5-.6 5.3-1m-8-9.2s2.1.4 3.7 0m20.2-10.4h-6.5c-.6 0-1.3 0-1.8.4-.7.5-.8 1.5-.9 2.3-.3 5.1.1 10.3 1.1 15.3.1.3.1.6.4.8.2.2.5.2.8.2 2.5 0 4.9-.1 7.4-.6m-9.5-8.3s2.1-.4 3.3-.3" id="coffe"/><path class="st4" d="M473.1 231.3c0-.3-.2-.8-.3-1.1-5.8-15.9-24.2-19.8-27.2-20.4l-4.1-8.5c-.6-1.3-1.3-2.7-2-3.9-2-3.3-4.7-6.8-7.6-9.1-1.7-1.3-3.4-2.6-5.2-3.7-10.5-6.7-23.5-9.1-35.5-5.6-1.9.5-3.7 1.1-5.6 1.2-2.5.1-6.4 1.2-8.6 2.3-2.4 1.2-4.7 2.2-7.2 3-2.1.6-2.5 3.3-4.4 4.3-.4.2-.8.3-1.2.4-2.1.8-4.7 3.3-5.9 5.2-1.8 2.8-2 6.6-3.9 9.4-.3.5-1.2 2-1.2 2.3.1 1.2-.6 2.6-1 4.8-.1.3-.1.8-.2 1.4.1-.2-19.3-1.3-24.6 20.8-.1.3.1.7.5.8.4.1.7-.4.9-.8l1.1-2.4c.1-.2.2-.5.5-.6.3-.1.6 0 .9.1l.8.6c.3.1.7.1.9-.1.2-.2.1-.5 0-.7-.1-.2-.3-.4-.5-.6-.5-.4-.9-.8-1.1-1.4 0 0 5.4-12 20.3-13-.1.8-.3 1.5-.7 1.9 0 0-.6.9-3.3 2.3 0 0-17.8 6.5-13.2 14.4 0 0 2.3 7.9 30.2 10.8 0 0 25.1 2.5 51.9 1.5l.1 1.1s1.4 8.8-1.2 18.5c0 0 3.5 3.2 5.7 5.3.8.7 2.1 1.9 2.6 1.1.4-.6.3-1.7-.3-2.8 0 0-1.6-3.6-4.2-4.5 0 0 3-10.3 2.5-18.9 3.6-.2 7-.4 10.5-.7.3 3.1.7 10.3-1.4 17.9 0 0 4.9 3.7 6.9 5.4 0 0 1.2 1.2 2.1.7.4-.2.2-1.3 0-1.7-.4-1.3-2-3.6-5-5.8-.5-.6 1.4-8.5 1-16.7 8-.9 33.5-4.8 31.8-15.6-.1-.8-.7-1.4-1.2-2-2-2.5-8.7-9.7-18.1-11.8-.1-.2-.2-.5-.2-.7-.1-.4-.3-.8-.4-1.1 2.2.5 14.2 3.3 20 11.5.3.4.3 1 .3 1.5l-.1 1.6c0 .4 0 1 .4 1 .3.1.6-.2.7-.5l.2-.9c.1-.3.4-.7.7-.6.3.1.6.5.7.8l1.2 2.8c.1.3.2.5.4.8.2.2.5.3.8.2-.1-.7 0-1.2 0-1.5zm-29.6-6.7c-.8.1-1.6.1-2.4.1-7.2-.1-10.3 3.1-10.3 3.1-2.8 2.3-3.6.7-3.6.7-.4-.4-.9-.7-1.3-1-1.4-.9-3-1.3-4.7-1.4-3.9-.2-4.5 1.8-4.5 1.8-.9 2.1-2.9 1.7-2.9 1.7-1.3.1-1.9-.4-1.9-.4-.2-8.1-4.9-10.4-4.9-10.4-4.6-2.6-9.6.1-9.6.1-7.9 4.5-5.8 12.4-5.8 12.4-1.7 1.3-4.1 0-4.1 0-5.6-1.9-11.2 1.8-11.2 1.8-.9.5-1.7 1.2-2.6 1.6-1.7.8-3.7.7-5.3-.3-.5-.3-1-.7-1.6-.9-.7-.2-1.4 0-2 .4-.6.5-.9 1.2-1.4 1.8-1.1 1.1-2.9 1.1-4.4 1.3-3 .5-2.7.3-2.6.3-1.1.5-1.8-.4-1.8-.4.9-7.3 2-5.9 1.7-10.5-.1-1.7-.8-3.4-1.4-5-.6-1.6-1.3-3.2-1.4-5s.5-3.6 1.8-4.6c1.3-1 3.5-.8 4.3.7l.3-1.4c.2-.9 1.2-.6 1.8 0 .4.4.8.6 1.3.6.9 0 1.7-.9 1.7-1.9 0 0 .2-1.1-.6-1.9-.8-.9-1.6-1.9-2-3-1-2.9-1.3-7.6 5.2-9.8 0 0 4.8-1.3 9.4 0 0 0 2.3.8 3.3-1.7 0 0 .3-.8.6-1.8 1.2-3.9 4.6-7.1 8.4-6.9l.2.6s2.3.2 3.6 0c0 0 1.5-.2-.4 1.8 0 0-1.4 2.8 1.4 2.4 0 0 2.7.1 6.4-1.3 0 0 6.5-2.6 14.6.8 0 0 7.4 3.6 9.4 3.3 0 0 1.6.2 1.6 1.5 0 1.9-.3 4.4 1.1 5.5.5.4 1.2.4 1.8.3 3.1-.9 7.2-2 8.9 2.2.4 1 .5 2 .6 3 .1 4 .4 8.1 1.7 11.8 1.1 3.2 3.1 5.7 5.8 7.5l-2.2.5z"/><path class="st2" d="M413.3 191l.1-.1c.1 0 .2.1.2.1v.2c-.1.3-.2.6-.4.9-.1.2-.2.5-.4.6-.1 0-.1-.2-.1-.3.1-.4.3-.9.6-1.4zm-14 16.1c-1.7 5.7-9.8 5.9-9.8 5.9 1.2 2.2 2.5 3.4 3.8 4 3.4 1.5 7.6-1.1 7.7-4.7.1-2.7-1.7-5.2-1.7-5.2zm.4 4.4c.5 3.1-2.8 5.7-5.9 4.6-.8-.3-1.6-.8-2.2-2 0 0 4.4.1 7.5-4.5.1 0 .4.8.6 1.9zm28.9-8c-.5.1-1.1.2-1.7.1l-.1-.1c0-.1 0-.2.1-.2.1-.1.1-.1.2-.1l1-.1c.2 0 .5 0 .7.2.1.1-.1.1-.2.2zm-61.3 5.7c-.4-.4-.7-.9-.8-1.4v-.2c0-.1.1-.1.2-.1l.2.2c.2.3.4.6.5.9.1.2.2.5.2.7-.1 0-.2 0-.3-.1zm40.7-16.9c.2-.5.4-.9.8-1.3l.1-.1c.1 0 .1.1.2.2 0 .1 0 .2-.1.2-.1.3-.3.6-.5.9-.1.2-.3.4-.5.5-.1 0-.1-.1-.1-.2l-.7.6c-2.9-3.2-6.1 0-6.1 0l-.6-.9c.1-.1 3.4-3.5 7.5.1zm-34.3 9.1v-.1c0-.1.1-.1.2-.2.3-.2.6-.4.8-.6.2-.1.4-.2.6-.2.9-.4 1.4-.4 1.4-.4l.5 1.1c-4.8.9-4.1 5.1-4.1 5.1l-1 .2c-.3-2.4.5-3.9 1.6-4.9zm63 20.6c-.4-.4-.6-.9-.8-1.5v-.2c0-.1.1-.1.2 0 .1 0 .1.1.2.2l.5.9c.1.2.2.5.2.7-.1.1-.3 0-.3-.1zm-50.5-13.5l-1.7-1.8v.4c-.1.1-.2 0-.3-.1l-.1-.2c-.7.5-1.5.7-1.5.7l1.2 2.3-1 .5-1.2-2.5c-.3.3-1.5.2-1.5.2v2.8l-.9.1-.2-3c-.4 0-1-.1-1-.1l-.9 2.6-.9-.3.9-2.5-.5-.2.3-.9c3.2 1.1 5.4.4 6.9-.7l-.1-.3v-.2c0-.1.2-.1.2 0 .1 0 .1.1.1.2v.1c1.5-1.3 2.1-2.9 2.1-2.9l.9.3c-.1.5-.3.8-.3.8l2.3 1-.4 1-2.5-1.2-1 1.2 1.7 2-.6.7zm38.6-8.3c-.3.5-.7.9-1.1 1.2h-.2c-.1 0-.1-.1-.1-.2l.1-.2c.2-.3.4-.5.7-.7.2-.2.4-.3.6-.4.1.1.1.2 0 .3zm-20.7-.4c-.7.6-1.8.9-1.8.9l1.2 2.3-1 .5-1.2-2.5c-.3.3-1.5.2-1.5.2v2.8l-.9.1-.2-3c-.4 0-1-.1-1-.1l-.9 2.6-.9-.3.9-2.5-.5-.2.3-.9c7.1 2.4 9.3-3.8 9.3-3.8l.9.3c-.1.5-.3.8-.3.8l2.3 1-.4 1-.9-.4v.6c0 .2-.1.5-.2.7-.1 0-.2-.1-.2-.2-.1-.4-.1-.8 0-1.3l-1.3-.6-1 1.2 1.7 2-.7.7-1.7-1.9zm-15.8-9.3c-.1.3-.3.6-.5.9-.1.2-.3.4-.5.5-.1 0-.1-.2-.1-.3.2-.5.5-1 .8-1.4l.1-.1c.1 0 .1.1.2.2.1 0 0 .1 0 .2zm45.3 19.6c.3-.5.6-.9 1.1-1.3l.2-.1c.1 0 .1.1.1.2l-.1.2-.6.8c-.2.2-.4.4-.6.4-.2 0-.1-.1-.1-.2zm-28.7 4c-.2.3-.4.5-.7.7-.2.2-.4.3-.6.4-.1-.1 0-.2 0-.3.3-.5.7-.9 1.1-1.2h.2c.1 0 .1.1.1.2l-.1.2zm11.8-13.5c-.1 0-.2.1-.2.1h-1c-.2 0-.5 0-.7-.2 0-.1.1-.2.2-.2.5-.1 1.1-.1 1.7 0l.1.1c0 .1-.1.2-.1.2zm-4.6 6.3c0-.1 0-.2.1-.2h.2l1 .3c.2.1.5.2.6.4 0 .1-.1.1-.3.1-.6 0-1.1-.2-1.6-.4 0-.1.1 0 0-.2zm-27.2 13.8l.2-.1c.1 0 .1.1.1.2s0 .2-.1.2c-.2.3-.4.6-.6.8-.1.2-.3.4-.6.5-.1 0-.1-.2 0-.3.3-.5.6-.9 1-1.3zm-3.5-22.3v-.2c0-.1.1-.1.2-.1l.2.2c.2.3.4.6.5.9.1.2.2.5.2.7-.1.1-.2 0-.3-.1-.4-.4-.7-.9-.8-1.4zm-.6-.3c-.4.4-.9.7-1.4.9h-.2c-.1 0-.1-.1-.1-.2l.2-.2c.3-.2.6-.4.8-.6.2-.1.4-.2.7-.2.1.1 0 .3 0 .3zm46.5 17.2c-.2.3-.4.5-.7.7-.2.2-.4.3-.6.4-.1-.1 0-.2 0-.3.3-.5.7-.9 1.1-1.2h.2c.1 0 .1.1.1.2s0 .1-.1.2zm-58.5 10.4c-.4-.4-.7-.9-.8-1.4v-.2c0-.1.1-.1.2-.1l.2.2c.2.3.4.6.5.9.1.2.2.5.2.7-.1.1-.2 0-.3-.1zm12.5 2.3c-.1.1-.2 0-.3-.1-.3-.5-.5-1-.6-1.5v-.2c0-.1.2-.1.2 0s.1.1.1.2c.2.3.3.6.4.9.2.2.3.4.2.7zm-11.9-21.8c0 .1-.1.1-.2.2-.3.2-.6.4-.9.5-.2.1-.5.2-.7.2-.1-.1 0-.2.1-.3.4-.4.9-.6 1.4-.8h.2c.1 0 .1.1.1.2zm44.2-14.9c-.1.3-.2.6-.4.9-.1.2-.2.5-.4.6-.1 0-.1-.2-.1-.3.1-.5.3-1.1.6-1.5l.1-.1c.1 0 .2.1.2.1v.3zm-7.5 25.1c0-.1 0-.2.1-.2h.2c.3 0 .7 0 1 .1.2 0 .5.1.7.3 0 .1-.1.2-.2.2-.6.1-1.1 0-1.6-.2-.3-.2-.1-.1-.2-.2zm10.3 5.4c-.3.5-.7.9-1.2 1.2h-.2c-.1 0-.1-.1-.1-.2l.1-.2c.2-.3.4-.5.7-.7.2-.2.4-.3.6-.4.2.1.2.3.1.3z"/></g><g id="CREAM"><path class="st5" d="M351.8 213.2l-.4 2.2c-15.8 1.8-20.3 13.5-20.3 13.5.1.6.6 1 1 1.3.2.2.4.3.5.5.1.2.1.5 0 .7-.2.3-.6.3-.8.1l-.8-.5c-.3-.2-.6-.3-.9-.1-.2.1-.3.4-.4.6l-1 2.3c-.2.4-.4.8-.8.7-.3-.1-.5-.4-.4-.7 5.7-21.2 24.4-20.8 24.3-20.6zm115.7 12.4c-5.1-9.2-20-11.9-20-11.9l-1.7-3.6s19.5 2.7 27 20.1c.1.3.3.8.3 1.1s0 .8-.4.9c-.3.1-.6 0-.8-.2-.2-.2-.3-.5-.4-.8-.4-1-.8-1.9-1.2-2.8-.1-.3-.4-.7-.7-.8-.3-.1-.6.3-.7.6s-.1.6-.2.9-.4.6-.7.5c-.4-.1-.5-.6-.4-1 0-.5.1-1 .1-1.6.1-.4 0-.9-.2-1.4zm-42.8 12.1c.4.8 1.7 2.6 2.4 2.1 1.6-1.1 4.1-3 5.3 4 0 0 1.3 10.1-1.3 19.8 0 0 5.2 3.8 7.3 5.5 0 0 1.4.9 1.4-.2 0 0-1.1-4.2-5.8-6.4 0 0 3.8-19.9-.6-27 0 0-2.6-5.4-8.3.2-.1 0-.9.9-.4 2zm-26.9-6.4s-1.5-6.3 2.5-9.2c3-2.1 7.2-1.3 9.3 1.7.9 1.3 1.7 2.7 1.9 5.4 0 0 .1-11-8.6-11.2-5.8-.1-10.7 5.1-10.6 11.2 0 .6.1 1.3.1 2 .1.1 2.6-1.4 5.4.1zm13.1 10.8c.3.8.9 2.2 1.5 1.7 1.5-1.1 4.4-3.1 4.8 3 0 0 1.2 10-1.2 19.6 0 0 4.1 3.5 6 5.3 0 0 1.8 1.4 1.8-.2 0 0-.7-3.9-5.1-6.1 0 0 4.4-16.6 1.4-24.9 0 0-1.4-4.7-8.1-.6 0 0-1.5 1-1.1 2.2z"/><path class="st6" d="M373.3 221.4c.2.5.5 1 .8 1.4.1.1.2.2.3.1 0-.2-.1-.5-.2-.7l-.5-.9c0-.1-.1-.1-.2-.2-.1 0-.2 0-.2.1-.1.2-.1.1 0 .2zm-10.3.9c.2.5.5 1 .8 1.4.1.1.2.2.3.1 0-.2-.1-.5-.2-.7l-.5-.9c0-.1-.1-.1-.2-.2s-.2 0-.2.1v.2zm-1.7-3.7c.5.2 1.1.3 1.6.3.1 0 .2 0 .2-.2-.2-.2-.4-.2-.7-.3l-1-.2h-.2c-.1 0-.1.1-.1.2l.2.2zm13.3-4.4c.2.5.5 1 .8 1.4.1.1.2.2.3.1 0-.2-.1-.5-.2-.7l-.5-.9c0-.1-.1-.1-.2-.2-.1 0-.2 0-.2.1v.2zm5.1 3c-.2.5-.2 1.1-.2 1.6 0 .1.1.2.2.2.2-.2.2-.4.3-.7.1-.3.1-.7.1-1v-.2c0-.1-.1-.1-.2-.1l-.2.2zm-11-4.3c.1.5.3 1.1.6 1.5.1.1.2.2.3.1.1-.2 0-.5-.1-.7-.1-.3-.2-.6-.4-.9l-.1-.2h-.2l-.1.2zm18.9-18.4c-.6 0-1.1.2-1.6.5-.1.1-.2.1-.1.2.2.1.5 0 .7 0 .3-.1.6-.2 1-.3.1 0 .2-.1.2-.1.1-.1.1-.2 0-.2l-.2-.1zm14.7 11c-.5.3-.8.7-1.1 1.2-.1.1-.1.2 0 .3.2 0 .4-.2.6-.4l.7-.7c.1-.1.1-.1.1-.2s0-.2-.1-.2h-.2zm-34.7-5.3c.5.3 1 .4 1.6.4.1 0 .2 0 .3-.1-.2-.2-.4-.3-.6-.4-.3-.1-.6-.2-1-.3h-.2c-.1 0-.1.1-.1.2v.2zm34.7-6.3c-.5-.1-1.1-.1-1.7 0-.1 0-.2.1-.2.2.2.1.5.2.7.2h1c.1 0 .2 0 .2-.1.1 0 .1-.1.1-.2-.1-.2.1-.1-.1-.1zm-9.7-2.4c.5.3 1 .5 1.6.6.1 0 .2 0 .3-.1-.1-.2-.4-.3-.6-.4-.3-.1-.6-.2-1-.3h-.2c-.1 0-.1.1-.1.2zm-3.4 36.6c-.4-.3-1-.6-1.5-.7-.1 0-.2 0-.3.1.1.2.3.4.6.5.3.2.6.3.9.4.1 0 .2.1.2 0 .1 0 .2-.1.2-.2l-.1-.1zm-1.6-11.4c-.1.6 0 1.1.1 1.7 0 .1.1.2.2.2.1-.2.1-.5.1-.7 0-.3 0-.7-.1-1 0-.1 0-.2-.1-.2-.1-.1-.2-.1-.2 0zm6.1-11.9c.5-.2 1-.5 1.4-.9.1-.1.2-.2.1-.3-.2 0-.5.1-.7.2-.3.2-.6.3-.8.6-.1 0-.1.1-.2.2 0 .1 0 .2.1.2.2 0 0 .1.1 0zm13 5.1c.4-.4.8-.8 1-1.3 0-.1.1-.2 0-.3l-.6.4-.6.8-.1.2c0 .1 0 .2.1.2h.2zm11.5-.4c.4.4.8.7 1.4 1 .1 0 .2.1.3 0-.1-.2-.3-.4-.5-.6l-.8-.6-.2-.1c-.1 0-.2.1-.2.1 0 .3-.1.1 0 .2zm1.2-8c.1.6.3 1.1.5 1.6.1.1.2.2.2.1.1-.2 0-.5 0-.7l-.3-.9c0-.1-.1-.2-.1-.2-.1 0-.2-.1-.2 0l-.1.1zm-8.8-7.6c.5.1 1.1.1 1.7-.1.1 0 .2-.1.2-.2-.2-.1-.5-.2-.7-.2h-1c-.1 0-.2 0-.2.1-.1 0-.1.1-.1.2.1.3-.1.2.1.2zm1.3 7.4c.1-.6 0-1.1-.1-1.7 0-.1-.1-.2-.2-.2-.1.2-.1.5-.1.7 0 .3 0 .7.1 1 0 .1 0 .2.1.2.1.1.2.1.2 0zm15.7 19.3c.5.1 1.1.1 1.7-.1.1 0 .2-.1.2-.2-.2-.1-.5-.2-.7-.2h-1c-.1 0-.2 0-.2.1s-.1.1-.1.2c0 .2-.1.2.1.2zm.3-9.1c.1.5.3 1.1.7 1.5.1.1.2.2.3.1.1-.2 0-.5-.1-.7l-.4-.9-.1-.2h-.2l-.2.2zm-8.1 11.9c.5.2 1.1.2 1.6.2.1 0 .2-.1.2-.2-.2-.2-.4-.2-.7-.3-.3-.1-.7-.1-1-.1h-.2s-.1.1-.1.2l.2.2zm5.9-21.7c.5.1 1.1.1 1.7-.1.1 0 .2-.1.2-.2-.2-.1-.5-.2-.7-.2h-1c-.1 0-.2 0-.2.1-.1 0-.1.1-.1.2l.1.2zm5 .9c.5.3 1 .5 1.6.6.1 0 .2 0 .3-.1-.1-.2-.4-.3-.6-.4-.3-.1-.6-.2-1-.3h-.2c-.1 0-.2.1-.1.2-.1.1-.2-.1 0 0zm6.1 9.9c-.5.3-.9.6-1.3 1.1-.1.1-.1.2 0 .3.2 0 .5-.2.7-.3.3-.2.5-.4.8-.7.1-.1.1-.1.1-.2s0-.2-.1-.2h-.2zm-21.7 3.7c-.5.3-.9.6-1.3 1.1-.1.1-.1.2 0 .3.2 0 .5-.2.7-.3.3-.2.5-.4.8-.7.1-.1.1-.1.1-.2s0-.2-.1-.2h-.2zm-58.1 6.5c.1.5.3 1.1.6 1.5.1.1.2.2.3.1.1-.2 0-.5-.1-.7-.1-.3-.2-.6-.4-.9l-.1-.2h-.2l-.1.2zm.5 9.5c-.5.3-.9.6-1.3 1.1-.1.1-.1.2 0 .3.2 0 .5-.2.7-.3.3-.2.5-.4.8-.7.1-.1.1-.1.1-.2s0-.2-.1-.2h-.2zm63.5-14.5c.5-.2 1-.4 1.5-.8.1-.1.2-.2.1-.3-.2 0-.5.1-.7.2-.3.1-.6.3-.9.5-.1 0-.1.1-.2.2v.2h.2z" id="cream_sprinkles_1_"/><path class="st5" d="M446.4 223.6c.6-.6 2.2-.7 2.2-.7s1.4.5 1.3-.4c-.2-2.3-1.1-3.2-1.9-5-.6-1.3-1.5-3.5-2.2-4.7l-3.8-8.4c-.6-1.3-1.6-4.4-2.4-5.6-2-3.2-4.6-7.1-7.6-9.4-1.7-1.3-3.4-2.5-5.2-3.6-10.5-6.5-23.4-9.8-35.4-6.4-1.9.5-3.7 1.1-5.6 1.2-2.5.1-6.3 1.2-8.6 2.2-2.4 1.1-4.7 2.2-7.2 2.9-2.1.6-2.4 3.2-4.4 4.2-.4.2-.8.3-1.2.4-2.1.8-4.7 3.3-5.9 5.2-1.8 2.8-2 6.4-3.9 9.1-.3.5-1.2 2-1.2 2.2.1 1.1-.6 2.6-1 4.6-.2 1.3-.4 4.2-.5 5.5l-.3 4.2c-.5 5.9-.7 8.6.1 13.6 0 0 1 .5 1.8 1.6.1.1-.1-.4-.1-.4-.3-5 2.1-5.3 1.6-10-.1-1.4-.6-2.7-1.1-4-.8-1.6-1.5-3.9-1.6-5.9-.1-1.7.5-3.5 1.8-4.5s3.7-1.6 4.6-.2l.3-1.4c.2-.8 1.2-.5 1.8.1.4.4 1 .9 1.5.9h.3c1.2-.2 1.5-1.8.5-2.6l-1-1.5c-.7-1.4-.8-1.3-1.4-2.5-1-2-.9-8 5.3-10 0 0 5.2-1.3 10 0 0 0 2.3.8 3.3-1.6 0 .1.2-1.2.6-2.3.6-2.2 2.1-3.5 3.2-4.6 1.4-1.4 2.4-1.8 4.3-1.9h1.6c-.2 0 .9.1.9.7 0 0 .3.5 1.5.2.1 0 1.1-.3 1.2-.2.6.1 1.7.7 1 1.4 0 0-3 3.1-.1 2.8 0 0 3.2-.4 7-1.8 0 0 6.7-1.9 14.9 1.5 0 0 7.7 3.6 9.7 3.3 0 0 1.5.9 1.5 2.2 0 1.9-1.2 3.6.2 4.6.5.3 1.1.5 1.7.3 3.1-.9 7.7-1.9 9.6 2.1.4 1 .6 2.7.6 3.7.1 3.9.4 8.3 1.7 12 1.3 3.1 3.2 5.1 6 6.9"/></g><path class="st7" d="M406.2 201.5l-.3.2.3-.2zm35.6 19.6c0-.1.1-.2 0-.2 0-.1-.1-.2-.2-.1-.2.1 0-.1-.1.1 0 0 0 .1-.1.1l.3.3c.1-.1.1-.2.1-.2zm0 .1l-.3.8c-.1.2-.2.4-.5.6-.1 0-.1-.2-.1-.3.1-.5.3-1 .6-1.4-.8-1.1-1.5-2.2-2-3.7-1.3-3.8-1.6-7.1-1.7-11.1 0-1-.2-2.9-.6-3.8-1.7-4.2-5.5-3.3-8.5-2.4-.6.2-2.3-.2-2.6-.8-1.3-3.2-.4-3.3-.7-5.2-.2-1-1.5-.9-1.5-.9-2 .3-9.4-3.3-9.4-3.3-8.1-3.5-14.6-.8-14.6-.8-3.7 1.5-6.4 1.3-6.4 1.3-2.9.3-1.4-2.4-1.4-2.4 1.9-2 .4-1.8.4-1.8-1.3.3-3.6 0-3.6 0l-.2-.6c-3.8-.1-7.2 3.1-8.4 7l-.6 1.8c-1 2.5-3.2 1.7-3.2 1.7-4.7-1.3-9.4 0-9.4 0-6.6 2.2-5.6 6.2-4.6 9.1.4 1.2 1.1 2.1 2 3 .8.8.6 1.9.6 1.9-.1 1-1.4 2.6-2.3 2.6-.5 0-.9-.3-1.3-.6-.6-.6-1.6-.9-1.8 0l-.3 1.4c-.8-1.5-3-1.7-4.3-.7-1.3 1-1.9 2.9-1.8 4.6.1 1.7.7 3.4 1.4 5 .6 1.6 1.3 3.2 1.4 5 .4 4.6-.7 2.3-1.5 9.6 0 0 .7.9 1.8.4 0 0 .3 0 2.6-.3 1.5-.2 3.3-.2 4.4-1.3.5-.5.8-1.3 1.4-1.8.5-.5 1.3-.6 2-.4.6.2 1.1.6 1.6.9 1.6 1 3.6 1.1 5.3.3.9-.4 1.7-1.1 2.6-1.6 0 0 5.7-3.7 11.2-1.8 0 0 2.4 1.3 4.1 0 0 0-2.3-7.8 5.7-12.2 0 0 5-2.8 9.5-.1 0 0 5.1 2.3 5.4 10.4 0 0 .4.4 1.7.3 0 0 2 .6 2.6-.8 0 0 .7-2.3 4.7-2.1 1.6.1 3.2.5 4.7 1.4.5.3 1 .6 1.3 1 0 0 .8 1.6 3.6-.7 0 0 3.2-3.5 10.4-3.4.8 0 1.3.1 2.1 0l1.8-.4c-1.4-1.4-2.5-2.3-3.3-3.4zm-83.3-1.8l.1-.1c.1 0 .2 0 .2.1v.2l-.1 1c0 .2-.1.5-.3.7-.1 0-.1-.1-.2-.2 0-.6.1-1.2.3-1.7zm-.3 8.4c-.1.1-.2 0-.3-.1-.3-.5-.5-1-.6-1.5v-.2c0-.1.2-.1.2 0 .1 0 .1.1.1.2.2.3.3.6.4.9.2.2.3.5.2.7zm-.3-3.5c-.1.1-.2 0-.3-.1-.3-.5-.5-1-.6-1.5v-.2c0-.1.2-.1.2 0s.1.1.1.2c.2.3.3.6.4.9.2.2.2.5.2.7zm-.4-5.8c-.1.1-.2 0-.3-.1-.4-.4-.7-.9-.8-1.4v-.2c0-.1.2-.1.2-.1.1 0 .1.1.2.2.2.3.4.6.5.9.1.2.2.5.2.7zm-1.2-5.4l.1-.1h.2s.1.1.1.2c.1.3.1.7.1 1 0 .2 0 .5-.1.7-.1 0-.2-.1-.2-.2-.2-.5-.2-1.1-.2-1.6zm-.1 20.4c-.1-.1 0-.2 0-.3.3-.4.8-.8 1.3-1.1h.2c.1 0 .1.1.1.2l-.1.2c-.2.2-.5.5-.8.7-.2.2-.4.3-.7.3zm2.7.9c-.2.2-.5.5-.8.7-.2.1-.4.3-.7.3-.1-.1 0-.2 0-.3.3-.4.8-.8 1.3-1.1h.2c.1 0 .1.1.1.2s0 .2-.1.2zm3-18.3c0-.1.1-.1.2-.2.3-.2.6-.4.8-.6.2-.1.4-.2.7-.2.1.1 0 .2-.1.3-.4.4-.9.7-1.4.9h-.2s-.1-.1 0-.2zm-.7 2.3c0-.1 0-.2.1-.2h.2c.3 0 .7.1 1 .2.2.1.5.1.7.3 0 .1-.1.1-.2.2-.6 0-1.1-.1-1.6-.3-.3-.1-.1 0-.2-.2zm1.2 1.9c0-.1 0-.2.1-.2h.2l1 .1c.2.1.5.1.7.3 0 .1-.1.1-.2.2-.5 0-1.1-.1-1.6-.3-.2 0-.1.1-.2-.1zm1.4 3.4c-.4-.4-.7-.9-.8-1.4v-.2c0-.1.1-.1.2-.1l.2.2c.2.3.4.6.5.9.1.2.2.5.2.7-.1.1-.2 0-.3-.1zm1.1 7.3c-.4-.4-.7-.9-.8-1.4v-.2c0-.1.1-.1.2-.1l.2.2c.2.3.4.6.5.9.1.2.2.5.2.7-.1.1-.2 0-.3-.1zm.2-27.4h-.2l-.9-.4c-.2-.1-.4-.3-.6-.5 0-.1.2-.1.3-.1.5.1 1.1.4 1.5.7l.1.1c0 .1-.1.2-.2.2zm5.6-1.2c0 .1-.1.1-.2.1-.6 0-1.1-.2-1.6-.5l-.1-.1c0-.1 0-.2.1-.2h.2l1 .3c.2.1.5.2.6.4zm-1.3 3.8c0 .1-.1.1-.2.2-.3.2-.6.4-.9.5-.2.1-.5.2-.7.2-.1-.1 0-.2.1-.3.4-.4.9-.6 1.4-.8h.2c.1 0 .1.1.1.2zm-1.8-6.3h.2l1 .3c.2.1.5.2.6.4 0 .1-.1.1-.3.1-.6 0-1.1-.2-1.6-.4l-.1-.1c.1-.2.1-.3.2-.3zm-1 20.6c-.1-.1 0-.2.1-.3.4-.3.9-.6 1.5-.7h.2c.1 0 .1.1 0 .2 0 .1-.1.1-.2.2l-.9.5-.7.1zm2.2 5.2c-.4-.4-.7-.9-.8-1.4v-.2c0-.1.1-.1.2-.1l.2.2c.2.3.4.6.5.9.1.2.2.5.2.7-.1.1-.2 0-.3-.1zm.8-11.1c-.1.1-.2 0-.3-.1-.3-.5-.5-1-.6-1.5v-.2c0-.1.2-.1.2 0 .1 0 .1.1.1.2.2.3.3.6.4.9.2.2.3.4.2.7zm1.3 1.8c-.1.1-.2 0-.2-.1-.3-.5-.5-1-.6-1.5v-.1l.1-.1c0-.1.1-.1.2 0 .1 0 .1.1.2.2l.4.9c-.1.2-.1.5-.1.7zm42.2-13.1c-.1 0-.2 0-.2-.1l-.1-.2-.1-1c0-.2 0-.5.1-.7.1 0 .2.1.2.2.2.5.2 1.1.1 1.7v.1zm-1.2-7.5l-.2-.1c0-.1 0-.2.1-.2l.2-.1c.3 0 .7-.1 1 0 .2 0 .5 0 .7.2 0 .1-.1.2-.2.2-.5.1-1.1.1-1.6 0zm-.1 5.6h-.2c-.1-.1-.1-.1-.1-.2l-.1-1c0-.2 0-.5.1-.7.1 0 .2.1.2.2.2.5.2 1.1.1 1.7.1 0 .1-.1 0 0zm1.5-10.4l.1-.1c.1 0 .2.1.2.1v.2c-.1.3-.2.6-.4.9-.1.2-.2.5-.4.6-.1 0-.1-.2-.1-.3.1-.4.3-.9.6-1.4zm-5.3 1.3c.2-.5.4-.9.8-1.3l.1-.1c.1 0 .1.1.2.2s0 .2-.1.2l-.5.9c-.1.2-.3.4-.5.5-.1 0-.1-.1-.1-.2l-.7.6c-2.9-3.2-6 0-6 0l-.6-.9c0-.1 3.3-3.5 7.4.1zm-4.3 3.5c.1.1 0 .2-.1.2s-.2 0-.2.1h-1c-.2 0-.5 0-.7-.2 0-.1.1-.2.2-.2.5-.1 1.1-.1 1.7 0l.1.1zm-3-2c.5-.1 1.1-.1 1.7 0l.1.1c0 .1 0 .2-.1.2l-.2.1h-1c-.2 0-.5 0-.7-.2-.1-.1.1-.1.2-.2zm-2.7-.5c.4-.4.9-.7 1.4-.8h.2c.1 0 .1.1.1.2l-.2.2c-.3.2-.6.4-.9.5-.2.1-.5.2-.7.2 0-.1 0-.2.1-.3zm-.8 5.3c.1 0 .1.1 0 .2l-.2.2-.9.5c-.2.1-.5.2-.7.1-.1-.1 0-.2.1-.3.4-.3.9-.6 1.5-.7h.2zm-2.4 7.9c0-.1.1-.1.2-.2l.8-.6c.2-.1.5-.2.7-.2.1.1 0 .2-.1.3-.4.4-.9.7-1.4.9h-.2c0-.1-.1-.2 0-.2zm-1.1-1.7h-.2c-.1 0-.1-.1-.1-.2l.2-.2c.3-.2.6-.4.8-.6.2-.1.4-.2.7-.2.1.1 0 .2-.1.3-.3.4-.7.7-1.3.9zm2-10.9c0 .1-.2.1-.3.1-.6-.1-1.1-.3-1.6-.6l-.1-.1c0-.1 0-.2.1-.2h.2l1 .3c.4.1.6.3.7.5zm-3-2.7h.2c.3.1.6.2 1 .3.2.1.5.2.6.4 0 .1-.2.1-.3.1-.6-.1-1.1-.3-1.6-.6l-.1-.1s.1-.1.2-.1zm-.7 3.2c.1 0 .2 0 .2.1l.9.5c.2.1.4.3.5.5 0 .1-.2.1-.3.1-.5-.2-1-.5-1.4-.9l-.1-.1c0-.2.1-.2.2-.2zm-2.2 10.8h.2l1 .3c.2.1.5.2.6.4 0 .1-.1.1-.3.1-.6 0-1.1-.2-1.6-.4l-.1-.1c0-.2.1-.3.2-.3zm-.9-8.9h.2c.1 0 0 .2 0 .2s-.1.1-.2.1c-.3.1-.6.2-1 .3-.2.1-.5.1-.7 0 0-.1.1-.2.2-.2.4-.2.9-.3 1.5-.4zm-1.9 3.8l.1-.1c.1 0 .2 0 .2.1v.2l-.1 1c0 .2-.1.5-.3.7-.1 0-.1-.1-.2-.2 0-.6.1-1.2.3-1.7zm-.4-4.9c-.2.1-.5.1-.7 0 0-.1.1-.2.1-.2.5-.3 1-.4 1.6-.5h.2c.1.1.1.2 0 .2s-.1.1-.2.1c-.3.2-.7.3-1 .4zm.6-3.6c.2-.5.5-1 .8-1.4l.1-.1c.1 0 .1.1.2.2 0 .1 0 .2-.1.2-.1.3-.3.6-.5.9-.1.2-.3.4-.5.5v-.3zm-1.7-3.5c0-.1.1-.1.2-.1l.2.2.6.8c.1.2.3.4.3.7-.1.1-.2 0-.3-.1-.4-.4-.7-.8-1-1.3v-.2zm-3 11.8c-.1.1-.2 0-.3-.1-.4-.4-.7-.9-.8-1.4v-.2c0-.1.1-.1.2-.1l.2.2c.2.3.4.6.5.9.1.2.2.5.2.7zm-1.4-6.5c0-.1.1-.1.2-.1l.2.2c.2.3.4.6.5.9.1.2.2.5.2.7-.1.1-.2 0-.3-.1-.4-.4-.7-.9-.8-1.4v-.2zm-2 5.4c0-.1.1-.1.2-.2.3-.2.6-.4.8-.6.2-.1.4-.2.7-.2.1.1 0 .2-.1.3-.4.4-.9.7-1.4.9h-.2v-.2zm-.1 3.3c.2-.5.6-.9 1-1.3l.2-.1c.1 0 .1.1.1.2l-.1.2-.6.8c-.2.2-.3.4-.6.4-.1 0-.1-.1 0-.2zm-7.8-4.6c0-.1.1-.1.2-.1s.2 0 .2.1c.3.2.6.3.8.5.2.1.4.3.5.5 0 .1-.2.1-.3 0-.5-.2-1-.5-1.4-.9-.1-.1 0 .1 0-.1zm1.2 28.4l-.6.8c-.2.2-.3.4-.6.4-.1 0-.1-.2 0-.3.2-.5.6-.9 1-1.3l.2-.1c.1 0 .1.1.1.2 0 .2 0 .3-.1.3zm-.6-15.2c0-.6.1-1.1.2-1.6l.1-.1c.1 0 .2 0 .2.1v.2l-.1 1c0 .2-.1.5-.3.7 0 0-.1-.1-.1-.3zm.2-4.4c-.2-2.4.6-4 1.6-4.9v-.1c0-.1.1-.1.2-.2l.8-.6c.2-.1.4-.2.6-.2.9-.4 1.4-.4 1.4-.4l.5 1.1c-4.8.9-4.1 5.1-4.1 5.1l-1 .2zm2.1 16.6c-.4-.4-.7-.9-.8-1.4v-.2c0-.1.1-.1.2-.1l.2.2c.2.3.4.6.5.9.1.2.2.5.2.7l-.3-.1zm1.3 1.8c-.4-.4-.7-.9-.8-1.4v-.2c0-.1.1-.1.2 0 .1 0 .1.1.2.2.2.3.4.6.5.9.1.2.2.5.2.7-.1 0-.3-.1-.3-.2zm0-9.1c-.4-.4-.7-.9-.8-1.4v-.2c0-.1.1-.1.2-.1l.2.2c.2.3.4.6.5.9.1.2.2.5.2.7-.1.1-.2 0-.3-.1zm4 7.3c-.1.3-.3.6-.5.9-.1.2-.3.4-.5.5-.1 0-.1-.2-.1-.3.2-.5.5-1 .8-1.4l.1-.1c.1 0 .1.1.2.2.1 0 0 .1 0 .2zm.5-4.5c0 .2-.1.5-.3.7-.1 0-.2-.1-.2-.2 0-.6 0-1.1.2-1.6l.1-.1c.1 0 .2 0 .2.1v.2c.1.2.1.5 0 .9zm1.4 9.6c-.1.1-.2 0-.3-.1-.3-.5-.5-1-.6-1.5v-.2c0-.1.2-.1.2 0s.1.1.1.2c.2.3.3.6.4.9.2.2.3.4.2.7zm-.2-9.1c.1 0 .2 0 .2.1v.2c0 .3 0 .7-.1 1-.1.2-.1.5-.3.7-.1 0-.1-.1-.2-.2 0-.5 0-1.1.2-1.6.1-.2 0-.1.2-.2zm.7-5.4c-.4.4-.9.7-1.4.9h-.2c-.1 0-.1-.1-.1-.2l.2-.2c.3-.2.6-.4.8-.6.2-.1.4-.2.7-.2.1.1.1.2 0 .3zm1-3.3l-1.2-2.5c-.3.2-1.5.2-1.5.2v2.8l-.9.1-.2-3c-.3 0-1-.1-1-.1l-.9 2.6-.9-.3.9-2.6-.5-.2.3-.9c3.2 1.1 5.4.4 6.9-.7l-.1-.3v-.2c0-.1.1-.1.2 0 .1 0 .1.1.2.2v.1c1.5-1.3 2.1-2.9 2.1-2.9l.9.3c-.1.5-.3.9-.3.9l2.3 1-.4 1-2.5-1.2-1 1.2 1.7 2-.7.7-1.7-1.8v.4c-.1.1-.2 0-.2-.1l-.1-.2c-.7.5-1.5.8-1.5.8l1.2 2.3-1.1.4zm4.9 6.4h.2c.1.1.1.1.1.2.1.3.1.7.1 1 0 .2 0 .5-.1.7-.1 0-.2-.1-.2-.2-.2-.5-.2-1.1-.1-1.7-.1 0-.1.1 0 0zm-2.7 10.9c-.1 0-.2-.1-.2-.2-.2-.5-.2-1.1-.1-1.7l.1-.1h.2c.1.1.1.1.1.2.1.3.1.7.1 1-.1.4-.1.6-.2.8zm.1-6.5c-.2.3-.4.6-.6.8-.1.2-.3.4-.6.5-.1 0-.1-.2 0-.3.2-.5.5-1 .9-1.4l.2-.1c.1 0 .1.1.1.2.1.2 0 .2 0 .3zm0-6.4l-.6.8c-.2.2-.3.4-.6.4-.1 0-.1-.2 0-.3.2-.5.6-.9 1-1.3l.2-.1c.1 0 .1.1.1.2l-.1.3zm1.7-2.1c-.4-.4-.7-.9-.8-1.4v-.2c0-.1.1-.1.2 0 .1 0 .1.1.2.2.2.3.4.6.5.9.1.2.2.5.2.7-.1-.1-.3-.1-.3-.2zm.6 15c0-.1.2-.1.3-.1.5.1 1.1.4 1.5.7l.1.1c0 .1-.1.2-.2.2h-.2l-.9-.4c-.3-.1-.5-.3-.6-.5zm3 2.8h-.2l-.9-.4c-.2-.1-.4-.2-.6-.5 0-.1.2-.1.3-.1.5.1 1.1.4 1.5.7l.1.1-.2.2zm1.4-11.6c-.1.1-.2 0-.3-.1-.3-.5-.5-1-.6-1.5v-.2c0-.1.2-.1.2 0 .1 0 .1.1.1.2.2.3.3.6.4.9.2.2.3.5.2.7zm1.6-1.6c-1.3-.6-2.7-1.8-3.9-4 0 0 8-.3 9.8-6 0 0 1.7 2.5 1.6 5.3-.1 3.6-4.1 6.1-7.5 4.7zm7.7-10.1c-.1-.1 0-.2 0-.3.3-.5.7-.9 1.1-1.2h.2c.1 0 .1.1.1.2l-.1.2c-.2.3-.4.5-.7.7-.1.2-.3.3-.6.4zm1.3 1.9c-.1-.1 0-.2 0-.3.3-.5.7-.9 1.1-1.2h.2c.1 0 .1.1.1.2l-.1.2c-.2.3-.4.5-.7.8-.2 0-.4.2-.6.3zm2.5 5.2c-.2.3-.4.5-.7.7-.2.2-.4.3-.6.4-.1-.1 0-.2 0-.3.3-.5.7-.9 1.1-1.2h.2c.1 0 .1.1.1.2l-.1.2zm0-3.8c-.4-.4-.6-.9-.8-1.5v-.2c0-.1.1-.1.2 0l.2.2.5.9c.1.2.2.5.2.7l-.3-.1zm.3-7.3c-.1 0-.1-.1-.1-.2l.1-.2.6-.8.1-.1-1.8-1.9c-.7.6-1.8.9-1.8.9l1.2 2.3-1 .5-1.2-2.5c-.3.3-1.5.2-1.5.2v2.8l-.9.1-.2-3c-.3 0-1-.1-1-.1l-.9 2.6-.9-.3.9-2.5-.5-.2.3-.9c7.1 2.4 9.3-3.8 9.3-3.8l.9.3c-.1.5-.3.9-.3.9l2.3 1-.4 1-.9-.4v.6c0 .2-.1.5-.2.7-.1 0-.2-.1-.2-.2-.1-.4-.1-.8 0-1.3l-1.3-.6-1 1.2 1.7 2-.4.4.2-.1c.1 0 .1.2 0 .3-.2.5-.6.9-1 1.3-.1.1.1 0-.1 0zm2.5 5.6c-.2.5-.6.9-1 1.3l-.2.1c-.1 0-.1-.1-.1-.2l.1-.2.6-.8c.2-.2.3-.4.6-.4.1-.1 0 .1 0 .2zm.2 8.1c-.6.1-1.1 0-1.6-.2l-.1-.1c0-.1 0-.2.1-.2h.2c.3 0 .7 0 1 .1.2 0 .5.1.7.3l-.3.1zm1-6.3c-.2.5-.6 1-1 1.3-.1 0-.1.1-.1.1h-.1c-.1 0-.1-.1-.1-.2s0-.2.1-.2c.2-.3.4-.6.6-.8.2-.2.3-.4.6-.4.1 0 .1.2 0 .2zm1.1-7.2c-.4.4-.9.6-1.5.8h-.2c-.1 0-.1-.1 0-.2 0-.1.1-.1.2-.2l.9-.5c.2-.1.5-.2.7-.2.1.1 0 .3-.1.3zm.5-9.4c0-.1 0-.2.1-.2l.2-.1c.3 0 .7-.1 1 0 .2 0 .5 0 .7.2 0 .1-.1.2-.2.2-.5.1-1.1.1-1.7.1l-.1-.2zm.7 17.4c0-.1.1-.1.2-.2l.9-.5c.2-.1.5-.2.7-.2.1.1 0 .2-.1.3-.4.4-.9.6-1.5.8h-.2v-.2zm1.8 10.4c-.6-.1-1.1-.3-1.6-.6l-.1-.1c0-.1.1-.2.1-.2h.2c.3.1.6.2 1 .3.2.1.5.2.6.4.1.2-.1.3-.2.2zm-.7-14.5l-.1-.1c0-.1 0-.2.1-.2h.2l1 .3c.2.1.5.2.6.4 0 .1-.1.1-.3.1-.5-.1-1.1-.3-1.5-.5zm1.3 7l.1-.2c.2-.3.4-.5.7-.7.2-.2.4-.3.6-.4.1.1 0 .2 0 .3-.3.5-.7.9-1.2 1.2h-.2c.1 0 0-.1 0-.2zm.9 3.2c-.2.1-.4.3-.7.3-.1-.1 0-.2 0-.3.3-.4.8-.8 1.3-1.1h.2c.1 0 .1.1.1.2l-.1.2c-.3.2-.6.5-.8.7zm2 1.2c-.2.2-.5.5-.8.7-.2.1-.4.3-.7.3-.1-.1 0-.2 0-.3.3-.4.8-.8 1.3-1.1h.2c.1 0 .1.1.1.2s0 .1-.1.2zm.2-17.9c-.1 0-.2.1-.2.1h-1c-.2 0-.5 0-.7-.2 0-.1.1-.2.2-.2.5-.1 1.1-.1 1.7 0l.1.1c0 .1-.1.2-.1.2zm16.4 4c.2.1.5.2.6.4 0 .1-.2.1-.3.1-.5-.1-1.1-.3-1.5-.6h-.1v-.1l.1-.2h.2c.4.1.7.2 1 .4zm-3.9 8.6c0-.1.1-.1.2 0 .1 0 .1.1.2.2.2.3.3.6.4.9.1.2.2.5.1.7-.1.1-.2 0-.3-.1-.3-.5-.5-1-.7-1.5.1-.1.1-.1.1-.2zm-.4-9.9c0 .1-.1.2-.2.2-.5.1-1.1.1-1.6.1l-.2-.1c0-.1 0-.2.1-.2.1-.1.2-.1.2-.1h1c.2-.1.5-.1.7.1zm0 9.8c-.1.1-.2 0-.3-.1-.3-.5-.5-1-.7-1.5v-.2c0-.1.2-.1.2 0l.2.2c.2.3.3.6.4.9.2.2.3.5.2.7zm-3.2-11.8c.1 0 .2-.1.2-.1.3 0 .7-.1 1 0 .2 0 .5 0 .7.2 0 .1-.1.2-.2.2-.5.1-1.1.1-1.7.1l-.1-.1c0-.1 0-.2.1-.3zm-2.8 10.2l.1-.1c.1 0 .2 0 .2.1l.1.2v1c0 .2-.1.5-.2.7-.1 0-.2-.1-.2-.2-.1-.6-.1-1.2 0-1.7zm-.3 5.2c.1.1 0 .2-.1.3-.4.4-.9.6-1.5.8h-.2c-.1 0-.1-.1 0-.2 0-.1.1-.1.2-.2l.9-.5c.2-.2.5-.3.7-.2zm-1.8-13.4c0-.1.2-.1.2 0 .1.1.1.1.1.2.1.3.2.6.3 1 .1.2.1.5 0 .7-.1 0-.2 0-.2-.1-.3-.5-.5-1-.5-1.6l.1-.2zm.4 9c0 .1-.2.1-.3 0-.5-.2-1-.6-1.4-1l-.1-.1v-.1c0-.1.1-.1.2-.1l.2.1c.3.2.6.4.8.6.3.2.5.4.6.6zm-1.6-10.9c.1-.1.2-.1.2 0 .1 0 .1.1.1.2l.3.9c.1.2.1.5 0 .7-.1.1-.2 0-.2-.1-.3-.5-.5-1-.5-1.6l.1-.1zm-1.4-6.9c.1-.1.2-.1.2 0 .1 0 .1.1.1.2l.3.9c.1.2.1.5 0 .7-.1.1-.2 0-.2-.1-.3-.5-.5-1-.5-1.6l.1-.1zm-.2 10.3c0-.1.2-.1.2 0 .1 0 .1.1.2.2.2.3.3.6.4.9.1.2.2.5.1.7-.1.1-.2 0-.3-.1-.3-.5-.5-1-.7-1.5l.1-.2zm.2 4.6c0-.1.1-.1.2-.1s.2 0 .2.1c.3.2.6.4.8.6.2.2.4.3.5.6 0 .1-.2.1-.3 0-.5-.2-1-.6-1.4-1v-.2zm1.1 9.9c0-.1.1-.1.2-.1s.2 0 .2.1c.3.2.6.4.8.6.2.2.4.3.5.6 0 .1-.2.1-.3 0-.5-.2-1-.6-1.3-1l-.1-.2zm.6 4.1l-.1-.1c0-.1 0-.2.1-.2h.2c.3 0 .7 0 1 .1.2 0 .5.1.7.3 0 .1-.1.2-.2.2l-1.7-.3zm2.9 2c-.5.1-1.1 0-1.6-.2l-.1-.1c0-.1 0-.2.1-.2h.2c.3 0 .7 0 1 .1.2 0 .5.1.7.3 0 .1-.2.1-.3.1zm1-6.6c-.4.4-.9.6-1.5.8h-.2c-.1 0-.1-.1 0-.2 0-.1.1-.1.2-.2l.9-.5c.2-.1.5-.2.7-.2.1.1 0 .2-.1.3zm0-17.4h-.2c-.1 0-.1-.1-.1-.2l.1-.2c.2-.3.4-.5.7-.7.2-.2.4-.3.6-.4.1.1 0 .2 0 .3-.3.5-.6.9-1.1 1.2zm2.4 18.5c-.3.5-.7.9-1.2 1.2h-.2c-.1 0-.1-.1-.1-.2l.1-.2c.2-.3.4-.5.7-.7.2-.2.4-.3.6-.4.2 0 .2.2.1.3zm.6-3.9c-.2.2-.4.3-.6.4-.1-.1 0-.2 0-.3.3-.5.7-.9 1.1-1.2h.2c.1 0 .1.1.1.2l-.1.2-.7.7zm.9 4.6l-.1-.1c0-.1 0-.2.1-.2l.2-.1c.3 0 .7-.1 1 0 .2 0 .5 0 .7.2 0 .1-.1.2-.2.2-.6 0-1.2.1-1.7 0zm2.3 5.3c-.5-.3-.9-.7-1.1-1.2v-.2c0-.1.1-.1.2-.1l.2.1c.3.2.5.5.7.7.2.2.3.4.3.6-.1.2-.2.2-.3.1zm.6-3.5c-.5.1-1.1.1-1.6 0l-.2-.1c0-.1 0-.2.1-.2l.2-.1h1c.2 0 .5 0 .7.2 0 .1-.1.2-.2.2zm.2-19.8l-.1-.1c0-.1.1-.2.1-.2h.2c.3.1.6.2 1 .3.2.1.5.2.6.4 0 .1-.2.1-.3.1-.5 0-1.1-.2-1.5-.5zm1 4.2c0-.1 0-.2.1-.2s.2 0 .2-.1h1c.2 0 .5.1.7.2 0 .1-.1.2-.2.2-.5.1-1.1.1-1.7-.1-.2 0 0 .1-.1 0zm2.3 13.5c-.6-.1-1.1-.3-1.6-.6l-.1-.1c0-.1.1-.2.1-.2h.2c.3.1.6.2 1 .3.2.1.5.2.6.4 0 .2-.1.2-.2.2zm.7-7.1l-.4.9c-.1.2-.2.4-.5.6-.1 0-.1-.2-.1-.3.1-.5.4-1.1.7-1.5l.1-.1c.1 0 .2.1.2.1.1.1 0 .2 0 .3zm.2-4l-.6.8c-.2.2-.4.4-.6.4-.1 0-.1-.2 0-.3.3-.5.6-.9 1.1-1.3l.2-.1c.1 0 .1.1.1.2s-.2.2-.2.3zm0-7.4c-.3.5-.7.9-1.2 1.2h-.2c-.1 0-.1-.1-.1-.2l.1-.2c.2-.3.4-.5.7-.7.2-.2.4-.3.6-.4.2.1.2.2.1.3zm.6 12c-.1-.1 0-.2 0-.3.3-.4.8-.8 1.3-1.1h.2c.1 0 .1.1.1.2l-.1.2c-.2.2-.5.5-.8.7-.2.2-.5.3-.7.3zm2.7 1c-.2.2-.5.5-.8.7-.2.1-.4.3-.6.3-.1-.1 0-.2 0-.3.3-.4.8-.8 1.3-1.1h.2c.1 0 .1.1.1.2-.1 0-.2.1-.2.2zm-46.7-.8c.6 1.1 1.4 1.8 2.2 2.1 3.1 1.1 6.4-1.6 6-4.7-.2-1.1-.6-1.8-.6-1.8-3 4.6-7.6 4.4-7.6 4.4z" id="PINK"/></svg>