<?xml version="1.0" encoding="utf-8"?>
<!-- Generator: Adobe Illustrator 18.1.1, SVG Export Plug-In . SVG Version: 6.00 Build 0)  -->
<svg version="1.1" id="Layer_1" xmlns="http://www.w3.org/2000/svg" xmlns:xlink="http://www.w3.org/1999/xlink" x="0px" y="0px"
	 viewBox="0 0 221.1 221.1" style="enable-background:new 0 0 221.1 221.1;" xml:space="preserve">
<style type="text/css">
	.st0{fill:#CC6695;}
	.st1{fill:#FFFFFF;}
</style>
<path class="st0" d="M0,110.4C0.1,49.1,49.4,0,110.6,0c61.1,0,110.5,49.6,110.5,110.7c-0.1,61.1-49.9,110.6-111.3,110.4
	C49.1,220.9-0.1,171.3,0,110.4z"/>
<path class="st1" d="M81.2,106.8c-10.4,0-21,0.1-31.6,0c-4.7-0.1-5.6,2.5-5.5,6.1c0.2,11.6-0.1,23.3,0.6,34.9
	c0.8,14.4,11.1,23.6,26.6,24.1c8.8,0.3,17.6,0.1,26.4,0.1c17.6,0,35.2,0.2,52.8-0.1c13.8-0.2,25.4-7,26.6-18
	c1.5-15.3,0.4-30.8,0.4-46.7c-11.3,0-23.1,0-34.7,0c-6.6,21.9-15.9,30.6-31.8,30.1C95.8,136.8,86.1,127.1,81.2,106.8z M97,46.2
	c0,8.9-0.1,17.3,0.1,25.7c0.1,4.5-1.9,5.4-6.8,3.9c0-8.4,0.1-16.8-0.1-25.3c0-0.2,0-0.3-0.1-0.5c-0.5-2.5-4.2-2.5-4.7-0.1
	c0,0.1,0,0.2,0,0.4c-0.3,7.3,0,14.6-0.3,21.8c0,0.2-0.1,0.5-0.1,0.7c-0.8,2.2-3.9,2.5-5.2,0.6c-0.3-0.4-0.5-0.9-0.6-1.4
	c-0.4-7.3,0-14.6-0.3-21.8c0-0.5-0.3-1.1-0.6-1.6c-0.9-1.5-3.1-1.5-4.1,0c-0.3,0.5-0.6,1-0.6,1.6c-0.3,7-0.3,14.1-0.1,21.1
	c0.1,4.6-1.5,6.4-7.2,4.3V47.1c-21.8,4.2-23.9,20.1-20.4,48.1c11.3,0,22.6,0.3,33.9-0.2c3.3-0.1,7.4-1.8,9.7-4
	c13.1-12.7,32.5-12.7,45.2,0.4c1.5,1.5,3.4,3.6,5.2,3.7c12.6,0.3,25.2,0.2,37.8,0.2c0.4-2.2,0.7-3.4,0.7-4.6
	c0-7.5,0.2-15.1-0.4-22.6c-0.9-11.2-9.6-21-21.5-21.6C137.1,45.5,117.4,46.2,97,46.2z"/>
</svg>
