<svg xmlns="http://www.w3.org/2000/svg" viewBox="0 0 191.9 253.7" enable-background="new 0 0 191.9 253.7"><path d="M110.7 96.7c-.5-.6-.2-.4 0 0zm78-3.6c-3.5-3.5-8.8-6.3-13.2-7.7-6.4-2-9.8-.5-11.5 4.2-13 35.1-30 84.1-43.2 119.5-2.2-37.7-2.8-80-4.5-101.7-.3-3.9-1.7-6.8-3.8-9.1-12.2-1.8-16.6 3.3-16.6 3.3-1 1-1.8 2.4-2.5 3.9-1.5 3.1-2.3 6.4-2.6 9.9l-2.3 29.3c-.1 1.8-.7 3.4-1.7 4.9-.6.9-1 1.9-1 1.9.5 16.1 1.3 31.7 2.3 46.2.7 8.7 1.7 18.9 3 27.9 1.1 8.2 4.7 15.4 11.8 19.4 5 2.9 12.2 5.8 18.2 7.6 9.5 2.8 13.9 1.4 17.3-6.6 15.5-35.6 43.9-108 52.5-138.6 1.7-6.3 1.6-10.3-2.2-14.3zm-101.1 18.9c1.3-9.4 6.1-12.9 6.1-12.9 7.6-5.3 17-2.4 17-2.4 7.5-31.4 1.8-61.5-12.7-79-29.6-35.8-77-9.5-95.3 12-4.2 4.7-3.3 7.8 1.1 12.6 2.9 3.5 6.8 7.1 9.6 9.8 1.1 31 3.1 68.5 5.3 95.1 1.1 13.4 4.6 15.6 11 18.9s11.2 5.3 17.9 7.6c6.8 2.1 11.9.5 17.1-4 7.1-6 13.3-12.3 18.7-19 1.4-1.6 2.2-3.7 2.3-5.8l1.9-32.9zm-37.8 27.7c-2.2-34-3.5-68.6-3.2-100.4 10.6-8.9 21.1-7.1 26.2-.9 10.2 12.8 14.2 62.4-23 101.3z"/></svg>