<?xml version="1.0" encoding="utf-8"?>
<!-- Generator: Adobe Illustrator 18.1.1, SVG Export Plug-In . SVG Version: 6.00 Build 0)  -->
<svg version="1.1" id="Layer_1" xmlns="http://www.w3.org/2000/svg" xmlns:xlink="http://www.w3.org/1999/xlink" x="0px" y="0px"
	 viewBox="0 0 221.1 221.1" style="enable-background:new 0 0 221.1 221.1;" xml:space="preserve">
<style type="text/css">
	.st0{fill:#DE4559;}
	.st1{fill:#FFFFFF;}
</style>
<path class="st0" d="M0,110.4C0.1,49.1,49.4,0,110.6,0c61.1,0,110.5,49.6,110.5,110.7c-0.1,61.1-49.9,110.6-111.3,110.4
	C49.1,220.9-0.1,171.3,0,110.4z"/>
<path class="st1" d="M140.7,88.4c-10,0-18.5,0-28.5,0c0.8-8.9-1.2-19.8,3.1-23.9c5.2-4.9,15.9-4.1,25.1-5.9c1.1-6.6,2.4-14.7,4-24.7
	c-12.1-0.5-23-1.7-33.8-1.1C91,33.9,81.2,43.9,79.8,63.5c-0.6,8-0.1,16-0.1,24.5c-6.2,0.3-11.2,0.6-16.9,0.9c0,8.6,0,16.8,0,25.2
	c5.3,0.3,10.2,0.5,16.4,0.8c0,27.6,0,54.8,0,81.9c11.9,0,22.5,0,34,0c0-27.6,0-54.6,0-82.7c8.9,0,16.8,0,24.9,0
	C139,105.3,139.7,97.6,140.7,88.4z"/>
</svg>
